<mxfile host="65bd71144e">
    <diagram id="mfEOPlvTynz5u6OL_8pw" name="Page-1">
        <mxGraphModel dx="1711" dy="439" grid="1" gridSize="10" guides="1" tooltips="1" connect="1" arrows="1" fold="1" page="1" pageScale="1" pageWidth="850" pageHeight="1100" math="0" shadow="0">
            <root>
                <mxCell id="0"/>
                <mxCell id="1" parent="0"/>
                <mxCell id="2" value="" style="shape=image;verticalLabelPosition=bottom;labelBackgroundColor=default;verticalAlign=top;aspect=fixed;imageAspect=0;image=data:image/png,iVBORw0KGgoAAAANSUhEUgAAAlgAAAF1CAIAAAC73gP+AAAgAElEQVR4Aey9d1AbSaL4//7cC9+72616VVf1ql69n7N9u967vb0N3tvb2+QNXhsnnL3rHDC2sTHB2ATb5JxzDiJHIYKEhBAgRE4SEkKAIso5k/Qr6N1ZHQYMNtgYuksFPTM9Pd2fCZ/pnh7pv/a7o+EHEoAEIAFIABLYsAT+a8PWHFYcEoAEIAFIABLY746GIoQNYkgAEoAEIIENTQCKcEPvfngzCAlAApAAJABFCEUICUACkAAksKEJQBFu6N0P7wQhAUgAEoAE5hHhce/qh+ktHhkU5OOe3nLSt2aVYJ0Pwh3ywiyU+fngOqfEpoOelQsluBBS553TvtDSo4+r3FLJZ/xrF0rwHPNvRBEfprU8TGtxiCXZ/FKw80G4RQo571YC8jt/CsQd8EDbRxHvxDXOmwbOhAQgAUgAElhtAvOI0CGO1D8quxZOOB9c9/MnCHf40YKuepEiHvSsbGWILoXUzZuJjWclvpun1Jrso4nzJtjvjnZNbsZ18RZaei4I18oQuSY3L5RgWfMPeKDj0P0NfYIbUUSHOFITdSy+sv+AO9r2SVUrXXTab3m6baIKHeJIBz0rM3H0CvLIskoCE0MCkAAkAAmsFIH5Rdg1JDn6uGqltrFIPoe8MHSu4nIoft40l8PwbJGmgynOq2fOm+CZIlxoreebf8q3ZnhMhbQvDz/CHPOu3u+OPu1XS2PLkflLzByIcImJYTJIABKABCCBVSKwDBFeCK475fdzB+kBd/TlUPzRx1UnfWvOBmDP+GPtIuvtIok/BmCRgh57Un09Ymbm+eC6A7Ov7R9+hDkfhDvpW3N9JnH9Gf/aWzENApnOM4NyI4oIpIKsvt8dnYGl1/fwnZOaBnlKa80c8Ki8FIq3iyJeDSd4pFNwXbzDXpjLoXiko3K/O/q4d/WF4JmG5uUwPGjOHvLCXA0n2EXOrHXklwbukcdV12ZnXosgHPnF/ReC6455V18OxYPCI0W6FdMwKtIcefQftwig95Ur0bgmN9tFEY88wpzyrTkXhEPWOuFTgxTe9knVLJP680E4Mm2mRbjfHX3Kt+anwJ/TH/CovBgys127yPrV645GygYjkAAkAAlAAssQYXBhVxtDBKTilNjUOyw97VcbXdbbMyytaed4pFPCS3r6R2ROiU373dHngnDtg+LUmgG3VHJdFze8pOeAB/pmdEP/qLy6je2d0+aDar8eUe+aQparjQF5Hc5JTaf+8zHkCZ9qGlvumtJs+6SqZ1jqm/vzg0Abj8p07ACpT+CWSo4s7WljiOq6eD8GYBk8xbUIAtijBzzQ+URmBnZgvzt6SKCyjyLaeFaWk0dKm4Zdk5sLGobiK/tBS47Yy8+rZzolNqEIg439AtsnMy08yoCwuJGVjWc8SCW7p7cgR8kx72omX4nr5J4L/PWJ4DHv6oD8TrFS/zi7zSmxyfZJVRy6H9vJRdYKL+nJrmPsd0efD8ZR6KK02gG3FHJBw9CoSANEGI/ur2pj73dHg6oRevhuqeTwku6OQfHt2BlTwg8kAAlAApDA6hGYX4RipYHQzcN1cnGd3Jp2zvXI+v3u6AMe6NoOTlrtwCnfmp5h6b2EmfEd0WW9vcPSEz4z/tjvjg7I72wfFNt4zDzbi0X3gZknfGbSn/StuRndIFIYwNUfLDrshRHK9fN2jbqnUxhcBWgVxZT3dQ5JbDxmhsw4xjfSOIrjs32SYIt1XbwD7uiSJhaKMAiyPfZkxlhXw2e8CER4JQw/yFdaNzptPCqLZm13wONn0+QTh/LqmQfc0e2D4uo29ryDXy6F4lvpIrHS0D4o9s5pA8N8roYTuBIN0uxbSITVbeyUatqB2VocfoTpHJLMEaFzUlP/qMz2yc8tTo8MSueQBJkEVYN/IQFIABKABFaWwPwiXOgZ4Wm/WgZXge3gZuLowB/RZb3Vs60ZUKxTvjUjQvW5IBxHor0aTjjpWwM+DX0C9wzKzegG6qgccdh+d/RCIjzggSb1C9Jnm3T73dFnA7AjQvXt2Ib97ujMOgZoYIEtIoNl7KOJA5yfH9SFFXfX9/BBAiDCY97VVLa8tHkY6Sk94VM9wFHcme2cBCmdEpvoXIWNZ2UbQ+T3SwMULJrz91o4IbaiT6w0ZGJnOCxFhCd8aobH1Getuo6RZ4RIizAbz8iabTuCzZ3yqxkSqH4M/LW3eU4x4CQkAAlAApDAixNYngj3zza85BrjtdnGFmgRWovwhE8NR6y1i6znSrRRZb3IJ7K050Jw3c3ohp5hKeh+BEVfSISXw/AytbG+h4emjKIpo5jWUYFMV0ga2u+OLicPg45NkAMiwkNemMZ+gX9ex5FHmA6m2C2VDBIAEe53R5/xr41D99O5it7Z/tuTvjUMntI+6tfxqHaR9SyBamYgK130KKv1mXA9MigjQvXhRzOPHp/ZIvwpEDsqVFs3754WYTl5JA4902eLfPpH5daPG5H5MAIJQAKQACSwUgSWJ0KHWNKQQBVd3tdMGwM9h3NahJfD8Kwx1eyzNNXTrxMsXYQp1bS6Lq5156R9NJEt1pzyq8nC0dNrZx7+gQ8iwv3u6IdpLa10kWtKc9+IDHnfAxEhsopvbnvXkOTHACyVLXec7eAFi5yTmmlsuc2SRWgXWc/kK5cowuPe1SNC9QmfX1/HfFqEqTUD+cRfx8ee9q+daRFaNSKRKsAIJAAJQAKQwEoRWIYIj3tX943IXJObbTwqG3r5SVXUAx4zzwhbGSIwkPKg58xTt9Im1n53dEHDUEo1DSnl9cj6g56VT4vwkBeGL9VdDvuP1yeOeVczeMp7s4NukBwOeWFa6aLgwi631BYqW37Ia+Z54WEvTGnzML775/cIj3tX9w5L+0ZkUWW9yIpAhIe9MEi35J04EoU+U+YMLL2cPAIePe53R1e0jCTPlnneFuEBD7R7+sx79EjOiRhqafMwGMLKFv36jNAjg9IzLAUmPvq4qqFPkF038/CysV8QXf7zc9MrYYThMfWcZ4Q3oxsGeUpksGhQQWczTYgMcEW2CyOQACQACUACK0hgfhFyxJp07EByNQ18EquoF4LrSpqGkfbKuSDckEB1I4oYXdbbPyrDdnKSq2n1PXxcJxcMnLF9UoVpZdd2cBIxVHw3j9DNA4Nl5nSN2nhUYju52E4uoZuHdGZ6Zbb2DkuffpHRO6etmyXd747Oq2e2D4pncu7i5tUzsR2/DtFMxFDH5DrrVhQQ4cyb9XRRRctIBpbexhCBhuDhR5jiRhapT5CIoRJ7+SWNLPDgc14R7ndH20XWtzFExF5+IoZa28GpamMD2x15VEXqE9S0s/HdvHsJjUceYarb2KR+QXI1ldQvKGseBg81LwTX9bCkZc3DGVh6bQenZeDn1yeQZ4T73dH+eR2dQ5LUGlpZ83BjvwD2i67gsQ6zggQgAUhgXgLziBCM47fxqLT+zI4arQSvA4KMDnjMTIKu0QO/JLZOYJ0PMh+MmbQuygGPmdcGkGYZGJ76dDJkoyACVgHJkGGfM+vOjG79j+9jQyaRDVmnty4kUipQNWTSOoJkYl1gUGbrWhyYfRfCxqMSZIVsEVn9gMfMKFyQs3UccP6ldr8+LLQuA4xDApAAJAAJrCCB+UW49A3MeUa49BVhSkgAEoAEIAFIYC0QeFERPkhrsX4gtxaqBMsACUACkAAkAAksncCLinDpW4IpIQFIABKABCCBNUgAihA+h4MEIAFIABLY0ASgCDf07l+Dt2awSJAAJAAJvGQCUIRQhJAAJAAJQAIbmgAU4Ybe/S/5tgtuDhKABCCBNUgAihCKEBKABCABSGBDE4Ai3NC7fw3emsEiQQKQACTwkglAEUIRQgKQACQACWxoAv91+BEGfiABSAASgAQggQ1L4L8sMEACkAAkAAlAAhuYABThBt75sOqQACQACUACFgsUITwKIAFIABKABDY0ASjCDb37YeUhAUgAEoAEoAjhMQAJQAKQACSwoQnMFSGBQPjL+g1btmx5aw2EP//5z+uXMawZJAAJQAJrncB3331nbf65IsThcJvWb/if//mfN9ZA+MMf/rB+GcOaQQKQACSw1gl8/vnnUISvWIZQhGv9LIHlgwQggXVNAIrwFVvwjTfegCJc16cYrBwkAAmsdQJQhFCEa/0YheWDBCABSGBVCUARQhGu6gEGM4cEIAFIYK0TgCKEIlzrxygsHyQACUACq0oAihCKcFUPMJg5JAAJQAJrnQAUIRThSzpGN2/evHXr1u1Pha1bt27evPklFQJuBhKABCCBpwissAg3z4ZNmzZt3rx5y5YtT21uBWaA6+nW2YBcQMF2l7vFRd4j/M1vfvOH2fD73//++VT5m9/8ZokrLjJqFFTz5ahiy5YtT29oy5Ytz9yVz0ywadOmXbt2HT9+3N7e3tnZ2cUqODs729vbHzt2bMeOHc9xcCAHA3IkPJ0Jckw+vei55yB5IhEkq+UehMiKMAIJbBAC234JW7dunbfK857XW2bDvOlffOYKi/D777+3sbHZtGnTv/71rzNnzrx4+Z7O4ZNPPnnw4MHp2bBnzx6Q4MCBA6dOnXJycvp4Njy91rxzFhGho6MjHo+Pj4/H4XBvvfXWEpWGJNu7d+/Zs2eRycUjC4lw165d3t7eZ86cuXbt2pkzZxa51lvXbs+ePR988IH1nKXEP/vss1u3bp07d+7ixYvWR+e1a9e+/PLLO3fuzLv1d95556uvvtqzZ8/ly5cX2cpf/vKXGzduWOlvnuj169d37ty5SCZPL9q8ebOtre3Vq1cvXbp08OBB6wT//Oc///GPf3w0Gw4fPvztt99aL33x+A+zYdOmTZ9//vmJEyeQDN9//317e3tkEkYgAUhgDoH33nuvoqLCycnpzp07Z8+enffG8csvv0xNTQ0JCTl27Biy+t27dx0cHJDJlY2srgjfeeedEydO7N27d9euXTY2NidPnvz8889Pnjz50Ucfbd269eDBg0eOHNm+ffuyqvTJJ5+cO3cOWWXnzp0nTpy4fv360aNHv//+++uzYceOHQcOHDh69OiuXbu+++67Y8eOvfPOO8gqSGQhEf7f//1fb2/vn//85zfeeMPR0fHdd9/du3evm5vbt99++/XXX9++fdvV1fXdd9/dtWuXq6vr5cuXt2/ffvfu3Rs3btja2j58+PD48eOFhYU1NTX/+7//e+3aNScnp82bN1+4cMHZ2Xn37t1PS3EREYJ1wYZ27Nhx6NChw4cP79y5c//+/ba2tt98883mzZu//PLLU6dO7d69+/PPPz969Ojdu3cvXbo07+GFVHxOZOvWrffu3Xv77bc3b978zTff7N69e+/evSdPnnz77bcREW7fvv3IkSMHDx7csmXL+++/f/LkyX/9619Hjx598ODBBx988MUXX+zYsePYsWP79u3bsWPH4cOHQYJNmzZt2bLl3LlzQH0PHjzAYDA6nS4gIKCoqIjD4QiFQm9vb7D0zJkzyy22o6Pjnj17tm7dum/fvk2bNn322WenTp167733HBwcLly4cOPGjatXr37yyScffvjhgQMHjh8//u2334I62tra/vDDD3//+99Pnz7973//ew6QZ07OEeHu3btPnDjx9ddfAxF++eWXNjY2hw4dWlZ1nrlRmAASWAcE3nvvvdzcXOSud+/evVevXr1169bHH3/80Ucf3b59+/r16xcuXEhNTbW1tf3000/PnTt369atDz744O7du6Ghobdu3frwww+XyMHe3r6jo4NCoXzzzTeLr7LyInRzc7ty5Yqjo+P58+dv3bq1Z8+emzdvfvfddx4eHh9//LGHh8cnn3zi4OBwcDZ8/fXXx48fX7yIc5Z+8sknXl5eV2bDu+++e+7cuS+//PL8+fOnT592cnI6ePDgDz/88O233544ceLbb7/98ccfXVxc9uzZM2+DZiERfv/99yQS6Y033rh+/bqTk9Px48c7Ojo+++yz5ubm9PT0oqIiJyen8vLy2tra06dPZ2RkxMbG0un03bt3e3p62tnZdXd3B84GBweHrKwsR0fH8vLy1tbWc+fOvfnmm8sS4ZMnT06cOHH58uUTJ04cPHjQxsbmm2++OXPmjKen5z//+U97e/v9+/ffunXrH//4h4ODw5UrV7777jtbW9u9e/fOgbb45F/+8hdnZ2fkjmTPnj3Xrl37+OOP7e3tEREeP378u+++279//9GjR52dnd977z0bG5tPP/30woULoEV44cKFL7744sKFC/v27Xv06NHf/va3+/fvb9++/Z133rlz5w5QXXJyskAg0Ov1AQEBXC63paUlJyfH1dUVLL19+/auXbsWL+qcpR988IG9vb2Li8vXX3/97rvv3rlz55133nF0dDxx4gSw0ffff3/48GEbGxt3d/ePPvro3r17X3311Y0bNz788EMPD48bN258+umnNjY2yzXWDz/84OrqeuXKlXv37p09e/b27dsffvjh1atXf/jhBwDt8OHDtra2oHdkTpnhJCSwkQm89957GAzG29v70aNHBw8evH37dmho6Llz58LDw6OiomxtbWNiYry9vUGL8N69exkZGUeOHLG1tXV0dAwKCrp8+bK/v/8SAb7zzjtoNDomJuaZ6VdehEjX6Pnz552cnHbt2vXjjz8ePXr01q1bf/3rX+/evfv+++87ODicO3fOycnJzs7u0KFDzyyldYI5LcKbN2++++6733zzDegatbGx+eGHH44dO/bll19+8MEHdnZ2jo6Ou3fvts4BiS8kwq1bt/b29v73f//37373u9jY2PT0dB6Pl5ycHBMTk5iY6O/vf/bs2Zqamv7+/oKCgoSEBG9v78bGxm3btvX09GRkZPT09AARhoWFPXjw4NtvvyWTyU1NTf/+97+ftuAi3yyza9cuJyenHTt2gNul8+fP37t3z87O7tixYy4uLm+//faJEyfOnz9/9uzZbdu2ubi4XL58+aOPPjp69OjXX3+N1HEpka1btzo5OYFG81dffXX8+HFbW9udO3c6OTkhIrx27drdu3fB1u/du7dt27ZNmzZ9/PHH58+fByK8ffv27t27Dx06dPLkyXv37u3cudPV1XX79u1///vfrZ8LxsfHgxahRCKpqamRy+WxsbFAhM7Ozu++++5SCgzSbNu27Ysvvti8efOOHTtcXV0///xzX19fOzu7CxcuICL87rvvgAidnZ3ffvttBweHI0eOnDp1avv27a6urn/729+uXLni4uKC3J8ucevWLcKffvrJy8vr5s2bdnZ2QIRXr179+OOPP/vss9OnTy8xQ5gMEtggBOa0CG/dunXv3r2DBw9GR0dnZmbu2bPn4cOHiAhBMyAhIcHLy8vJycnBweHo0aMBAQFLZ3Xx4sWvvvrqmelXUYRnz54FV+p79+59+umnc0T46aef2tvbX7hw4YcffnhmKa0TfPLJJ6DlZ2Nj8/HHH+/du9fOzs7Z2Rm0CL/55pvLly/v2bPn1q1b169f37dv33OI8I033njw4EFFRcWjR4+6urqOHDmCw+GioqIIBEJCQgIQYWlpaWhoaHZ2dn19/ePHjxsbG995553+/v7ExEQajebi4lJWVnbo0CESiYRGo319fZ9bhJs3b/7b3/7m6ur6xRdf2NvbX7x48eDBg15eXj/99NOdO3fef//9O3funDt37syZM5cuXfroo4/27dt37ty55TZxvvrqKzBoxc7ODuQJdIKI8IsvvrCzs7ty5crevXsvX758+vRpOzu7PXv2ODo6fvnll5cvX963b9+VK1fu3r376aefWotw9+7dd+/eBapzcXGJi4sDIqTT6RUVFRKJJDk5GSx1cHD4y1/+Yr2vF4+DTtezZ8+ePHnywoUL27dvv3PnzvHjx69du3bgwIEff/zx22+/vXjxImiZISL85JNPHB0dz5w54+Hh8dNPP9na2t68eXO5LVFrEZ46der06dM//fSTg4PD119/DVqEN27cWFYfzuI1hUshgXVD4L333isrK7t8+fL58+dtbW3v3LkDRBgWFubs7Ozv719QUICI8Pbt2/Hx8S4uLk+ePHk+Ec7bF/g0zBUWITKwB4wk3Lx58/bt28FYxDl/N23atG3btu3bty+xoEjRQZ5gED4Y1rF9+/Zt27Yhgx63bdu2efNmMC4JjD5aaBMLtQjfeOON3/zmN2+++eZbb731xz/+ETTaQPwPf/jD//t//+/3v//9H//4x9/97ndvvfXWm2+++bvf/e5Pf/oTWOXN2fD73//+zTff/O1vf/unP/3prbfeAgl++9vfLqtFuGnTJmTcClKp7du379y5EzSewFLwTgJSU1B3BNfSI2B3AIPOyRNsCCAFj/3AbgU7ESEPdgQoCVgEqnDp0iVEhMHBwW1tbU+ePAkJCWlvb6+trb1//z5Y+hz+Rg4GsItBscFIV4QYOCYRVjt37vznP/8JuiW2bNmCVGTpoAABAMr6OAdb3Lp165UrVz7++GPQaF5WtjAxJLDuCWzevHnnL2HHjh3btm3bunXrli1bduzYsW/fvg8//DAkJMTW1ha5qu/YsWPnzp3I+PktW7asxpm1wiJ8vfbiIiKc11irNHOhwTILwdy2bduZM2ee732DhfJc1fl//etfb926hbhw3sjNmzfnHdC04gXbtm0beHr9HGNrl1iYw4cP//Wvf11iYpgMEoAEAAFbW9vQ0FA3NzekAfDSyEARrpLdlpHtckX40g6OFdzQ7t27z5075+DgYP28EBjx9u3bP/7449tvv72Cm4NZQQKQACSwdAJQhMsw1iol3QgiBN2JO3fufPupsHPnzuU+0Vz68Q1TQgKQACTwTAJQhKtkt2Vku0FE+MxjESaABCABSOCVEIAiXIaxVikpFOErOfThRiEBSAASAASgCFfJbsvIFooQno2QACQACbxCAlCEyzDWKiWFInyFJwDcNCQACUACUISrZLdlZAtFCM9DSAASgAReIQEowmUYa5WSQhG+whMAbhoSgAQgASjCVbLbMrKFIoTnISQACUACr5DAM0RIp9MfzgY3NzcnJ6f7MEACkAAkAAlAAq8/ARcXFycnJyC4sLAwi1X4L6v4f0Q1Go3RaDTBAAlAApAAJAAJrAsCGo1mamrqP1Q3O7GgCBUKxbqoOKwEJAAJQAKQACQwQ0Cn001OTkIRwqMBEoAEIAFIYIMSgCJc3o7Xi8XyhnoZtvYlfXC1yvY2o16/vFLC1JAAJAAJrHkCEo2kidtUP1q/2p9mbrNEI1mEBxThInDmLtKLxfTTx3v2f9dz4PuX9und/x0vNHhuUeA0JAAJQAKvMwGxRnyx+uLxsuPHS1f9c6zs2LXaa2K1eCFgUIQLkZlnvpxYT7PZxzhiM/gSP4zDB2g2+0xwgNI8OwTOggQggdeVAJFNPIE+cabmzMv4VJ85iT5JZBMXggVFuBCZeebLsLUDB394mRYE26J+9xUU4Tz7A86CBCCB15YAbgR3qurUy7DgrGtPYk7WDtcuRGvlRajVank83ujoKJfL1Wg0C214xecrlUqDwbDi2Vpn+KpESIMitN4NMA4JQAKvP4ElivCn2p9WRJYvVYRDQ0ORkZFhYWHR0dGhoaHR0dHDw8MvYZdptdqYmBiVSrWq23q9RKhSqfizQSaTrRIWmUxmMBjUajWfz7eGL5VKeTyeRCIxGAxjY2MSya+PqZVKpVAoNBqN2tnwHAUzGo1CoVAgEOitxhAZjUapVDrvG64Gg0EqlT5zQyAH62RGo1EsFo+NjSE3WKAiSO1MJpPRaFw9vNaFgXFIYJ0RWIoIXZtcqTKqS6PLi7vw5YlQKBT6+vo2NzfrdDqTyaTX64lEYmRkJHKJVKlUIpEIXB9BAqlUqtVqxWIxMhO5uIhEIrlcDva9TqeTyWRyuVwsFhtmg0wmA1mBq6FAIPDx8eFwOOCapdFoxLMBlARc48DW1Wr1cx9PC4lwLCRQ3VCPfFQ4LOviT//Rg3r0IOvCjyPXLg9fvsA8dnjU4eaI/fX/SLDoQ8fnaxFSKBQikUin0/Pz81fjYi2Xy2NjY4VCIQ6H6+rqKiwsBLRNJlNhYSGdTufxeFQqta2traSkRCQSgT1eUVGBxWKZTGZDQ4O1IJe+U5qamhoaGjo6OqqrqxFF6XQ6FAqlVCqfzkehUKBQKCSl0Wisr69/OqVer8/OzraWK4/HKykpwePx3d3dJpOJzWZHR0ebTKaioqKBgQEul2swGFpbW7OyspDMn946nAMJQALzEnimCD1bPIuGiphKJolP+rH2R8SFF3EXHRocwMeOYAfmX8RdvI6/fg1/7UrdFf92/6fbkS9PhDU1NSkpKdYXBaVSmZGRIRQKTSbTwMBAWFhYwGwoLi7W6/VcLtff3z8lJSU4ONjHx6e0tFSv1xsMBjweHxgYGDQbmpubTSYTg8Hw9fUNnw1jY2NoNBos9fHxycnJ0Wq1OTk59+/fDwkJEYvFo6OjUVFRgYGB/v7+aWlpcrlcqVQGBwdHR0cHBQWRyeR598pSZi4kQkVZqfWbmFMmE9vxtrXn2E539T3dwqhwDblZmpmubqgXRoQxjx1mnT/LOv8j89jhodPHWefOsC78yDxpa70iiD+3CBkMhslkqqurGx4erqqqqqysHBoaKi4uJpPJRqOxpaWlvLy8pqamq6uroqJiaGioqqoKg8EoFAoKhVJYWDgyMqLRaCorKysqKtRq9dDQEPAZuFkhk8np6elAZiKRKC8vT6vVmkwmg8EA1AukotVq0Wi0QCAAb62WlZU1Nze3t7eDPbsU7NZpNBpNdnY2OMbYbLZSqcRgMEVFRQKBAIVCyeXypqamoqIiHo/X2toqk8moVOrg4CAKhVIoFJWVlcXFxcPDw6GhoZ2dnUKhsKSkhEgkAp+VlpampqaOjIzw+XywRQ6HU1VV1dHR0draqtPpcDhcWloaUjudTieXyykUirVlrYsK45AAJLAIgcVF6NniKTPKxnD8+XYAACAASURBVKfGMwcyr+OvIxY8U3MmpjemQ9wR0hkS0hni0eJxDnvOjmCXQk0h8omPWx/7t/sPq4YRQSIrvjwRxsXF1dXVgZrr9Xr1L0Gv1yuVytDQ0NbWVpPJpFKpoqOj29vbORyOu7t7R0eH0WgcGRnx9/cXCoVDQ0P+/v48Hs9kMnE4HF9fX7FYzGAwvLy8eDye0Wjk8XjR0dHgiszn80FDUK1W+/n5qVQqvV4fGxtbU1NjMBg0Gk1GRkZpaalCoQgICCAQCOAKvsi+WXzRc4twLCRI39c7Yn99xP4a3/eJvrdbVpgnTorXUlo0TY2SjDR5cZFxiKnC1qhwtcwTR+e48LlFmJaWVlhYWFZWJpfL09LSxGJxfn6+SCQqLy+n0WhFRUUymSwlJaW2tnZgYIBMJvf09FCp1Lq6uqysrJHZwGKxysvLWSzWnN7FsbGx1tbWkpISiURiNBoHBgYKCgpAC16pVKakpJBIpMrKSqPRODY2VllZyWQyAVs+n9/b20sgECgUSnl5OdJbsDh5ZKlMJsvPzwddoKBbksViYbHY1tZWFArFYDBqamrUajWbzcZgMEKhsLm5uaenB4VCicXi4eFhYP28vDyJRFJYWMjhcLBYbFdXV0FBgUKhSEtLs24RcjickpKS2tra3t7e/v5+JpOZlZWlUqlA7dBoNChAbm6u9c0fUlQYgQQggUUILCJCYEGLxcJQMJ5WWkxvDI6Du1x3+XLd5Yu4i5hRDJFPZCqZDfwGPA9fx60T6oWeLZ6IAkHk5YkwKiqKSPx5fCqFQnnw4IGbm9v9+/dbWlpGRkY8PT3LysowsyE2NjY3N5fD4fj5+YFOKoVCERISwufzq6urAwMDQTIMBuPt7d3e3s5gMIKDg5GeN/CEicvl4vH4x48fDw8PIyIUi8Xe3t7IVZtGo4WFhYlEopCQEORavMi+WXzRc4uQedJWGBmu7+8zczmi+FhVHVYQ4Gug0zj37ozetjcM0BRlpZK0lOFL54yDjOHLF1ZKhKBFaDKZNBpNTk6OXC5HoVBqtbqmpoZCoVRWVmq12szMTBwOB2BiMBgSicRgMMBkcXGxVqulUqmlpaVtbW3WcGpqagoKCsLCwohEol6vNxqNtbW1LBYLpAHd1ygUSqfTGY1GFosF7kLAUqlU2tjYWFpaSqPR2tvbrbN9Zlyn02VnZ4Nsm5ubQVu2uroaiLC3t5dEIoFWKQaDGRsba2pqAiLs6elBo9EYDKarqysvL08kEmVkZBAIhIaGBiqVWlZWBpp61iJsaWkZGBiQSqX5+fmZmZnFxcWBgYF0Ot26djKZDIrwmXsNJoAEniawkAgRC7JUrBv1N+b4DLQIqTJqGi0tjZbm1+43qh6923A3sieSyCfiefgi5kxv6kXcxTkrvjwR5ubmFhcXWw9Y0Ov1SUlJ4ILi6elZU1OD+yV0d3dzOBx/f3/w0E6pVIaFhfH5/OLi4oiIiF9Szfxns9kMBiMsLAyIUKVSZWRkeHt7p6amlpeXP3nyxFqEQqHQ29sb+ULUoaGhkJCQsbGxkJCQFx+289wi5Ps85j5wHTxiM3r7honF+lmEAzSOsyP7zq1fRJg8fOm8kUEfvnR+lUSoVqspFEpRUVFBQYFSqSwsLKyoqEhKSgIi5PF4eXl5hYWFfX19ZWVl4GEeh8MpLCwsLi6m0Wijo6NznuqVlJQIhcLq6uqy2aBQKGg0Gsi5pKSERCL19fWVlJTk5+eD7nHQIieRSCKRCI/Ho1AoNpv99Bmy+BwajVZQUFBWVtbY2DgwMIBCoQoLCxsaGlAolEgkKioqKisrI5PJXV1d2dnZWVlZQIT9/f25ubkFBQUtLS2lpaUdHR2dnZ2FhYU5OTlCobCsrKy8vDwpKYnD4SBFHRsbA6tQqVRQctAiLCwsLCkpaWhogC3CxfcUXAoJLEJgXhHeI93LH8w3T5lZKpZ9vf0cmYHJmN6YanY1iF/EXRxRjziSHNeQCOl0uo+PD3gaBOqvUCjCw8NbWlqEQqGPjw/o8DSZTFQqlcFgPC1CgUBAJpMjIiKA8wwGA5lMFgqF1iJsaWmJiIgAL2aIxWIfHx9rEapUKj8/v8HBQVCA+vr6hIQEqVS6qiKUFxdOT0wgn0mtlu1w01pmHGdHA42qqCjTUlokKUmywnxNY4MwIkzf16vr7hTFx8iLi0yjIxpys6wgj3nssPW6g0dsnq9rdJFD0GQygaYeaO5Y37ssvhZcCglAApDAihB4WoRna85iRjF8LT+ZmryQBUGLkK6g5w3m5Q3mpdJS85n5neJOtoYNukaz6dksFSu2N3aORF9ei9BkMhGJRG9v76qqKjKZjMVi/fz80tPTwSD7srKykJCQxsZGLBb7+PHjwcFBMFjGukUoEAiUSmVUVFRGRgaZTC4oKAgODlYqldYipNFo3t7eeDyeRCLFxMR4eXkxmUyNRuPj44PD4VQqFZFI9Pf3b2hoqK2t9fHxodPpSqVyVUU4462jB//j8/QoUCQBWHT04K9rHbGRFxVKczJncnh6xdURoclkam1tRaPRYvGCXzu0Ioc7zAQSgAQggacJPC3CC9gLKAYqqifqHPbcHI3NmTxbcxb5nKk5A+JImrM1Z5E4EnmpIjSZTDKZrK6urrCwEI1Gj46OIq0Ng8HQ09MDeq7GxsZMJpNUKsVgMKDxp9Vqa2trwSh/jUZDJBILCwuxWCzQpEAgqK2tBUMSjEZjX19fUVERGA3R0NAAnoT19PQUFhaOjY0ZjUY6nV5SUoJGo8GGNBpNTU0NMuLx6V2yxDkLdY3Oa69lzRQE+PK9Hy20ymq0CJdYZZgMEoAEIIHVIPC0CBFprUbkZYtwNZCtkTxXT4QLKRDMhyJcIwcALAYkAAmsFAEowpUi+bLzgSJ82cTh9iABSGCdEoAifF13rKK5aeDgvsVbb6uxlHHsMPzS7df1oIHlhgQggfkIkLnkk5iTq9ELOm+epzCnmrkzX88yb1j5L92edzPrY6ZRpRq5d4dx8AfGge9f2mfQ9rAoP3d9AIS1gAQgAUgAEFDpVQ9ID05VnTqBObHan9NVpz2bPFX6Bb+MGopweYelUaPR8bhaNvslfThsvXAMNgeXt5NgakgAEngdCGgMGr6Sz1VyV/vDV/G1hpkvgFwoQBEuRAbOhwQgAUgAEtgQBKAIN8RuhpWEBCABSAASWIjAskWo1WrhVwwvRBPOhwQgAUgAEni9CBiNRrVaPTU1Zf0jQiD+X0/PAnOmpqa0Wq0CBkgAEoAEIAFI4PUnAH4DZ17lLSjCeVPDmZAAJAAJQAKQwDojAEW4znYorA4kAAlAApDA8ghAES6PF0wNCUACkAAksM4IQBGusx0KqwMJQAKQACSwPAJQhMvjBVNDApAAJAAJrDMCUITrbIfC6kACkAAkAAksjwAU4fJ4wdSQACQACUAC64wAFOE626GwOpAAJAAJQALLIwBFuDxeMDUkAAlAApDAOiMARbjOdiisDiQACUACkMDyCEARLo8XTL1SBMbHx2Uymfi1DVKp1Gw2rxQNmA8kAAm8QgJQhK8Q/obetEwmm5ycfH0RTE1NyWSy17f8sOSQACSAEIAiRFDAyEslIBaLX+r2VmFjUql0FXKFWUICkMDLJgBF+LKJw+0BAlCE8EiABCCBNUIAinCN7IgNVwwowg23y2GFIYG1SgCKcK3umfVeLijC9b6HYf0ggdeGwLJFKJVKg6xCe3v789V1enp6cHDQerhEQUFBYGBgUFBQTEwMk8l8vmznrDU6Ojo+Pj46OtrR0TFnEZx8tQSgCF8tf7h1SAASQAgsW4TDw8N3797t+CWMjY0heS0rYjQavb29rQegOzo6YrHYjo4OIpF4/fp1kUi0rAznTRwUFKTX6/l8PpVKnTcBnPmqCCwkwomJidLS0ry8vLq6Ouv7JOtyKpVK5FZpejZYL7WOT01NWU8+M67RaOh0+uJ5IpksPlhmSG9J4lkmpmc+yTxLlxpZ7+eIdtKCGrNMTs+dPzltQQpdI7WITL8m0E5aQkctA9pf58AYJAAJvDiB5xGhn5/f9PSvp29nZ6e3t7fRaIyIiCASiXl5eY8fP75///7Dhw9VKpXBYAgPD3dxcXnw4AGPxxsZGXFwcPDw8EhKSjpw4EBKSgpSB2dnZ6FQCCZjY2P7+/uDgoI8PDyio6M5HM7Dhw+dnJw8PT01Gg2JRHJ3d3dzc3NxcRGJRGazOTk52dnZ2dXVta+vT6VSOTg4eHp6JicnHzp0KCQkhEwmo1Aoo9EYGxvr7Ox8//59JpOp1WoDAgJcXFxcXV0Xv6IhJYSRFSSwkAiNRmNycrLFYiGTyQu14zkcTlVVFSgMFovlcrnzFozP5+NwuHkXLTRTIBCUlZWh0WiBQLBQGmT+4odNnczyIdnCNliEJsvfmi3pfGS9nyMik+VQl8WESG929uS0xZ5mof6iOozEMmYlwkaFJYI9Nx84DQlAAi9I4HlEuHfv3p9+CVQqdWpqKiEhITQ0NCEhYXJyMjc3Nzs722KxtLS0pKamVlVVFRUVCYXCjo6OgICAoaGhR48eTUxMPN0ivHv3bmJiYl5eXmJiop2dnVKpDAoKotFoExMTvr6+4D69oaEhLS2NRCKFhIRMT0/TaLSwsDAKhZKcnDw2NsZgMNzd3SUSyb1794xGo8ViCQoK0ul0FAoFhUI1NDRkZWUJhcL+/v7Hjx/39fVFRUWZTCYajcZisV6QI1x9uQQWEeGTJ0+qqqpSUlKkUqlAIEhNTY2IiBgbG6uvr09KSioqKhoeHkbPhpGRkdDQ0NLSUh6Pl5iYmJqaKhQKMzMzk5OTe3t7a2tr/fz8DAaDxWJRKBRPnjzBYrElJSXJycl1dXV9fX3Jyck5OTlarTY+Pl6v16elpVGp1OLi4oCAADQa3dLSkpKSUlxcvFCz8pkivEGzFAgtuWOWkz0zIqySWM72Wr5um2kdvtNkcWJY9nfMiC2Db+EaZ9Kc7bXkCi0fkC1hoz/jdGJYqiWWvzRaLvZbrlAttwYsX7RZejWW490W224LHr7HuNzDDqaHBOYj8Dwi9PX1nfolgDz5fP7Ro0dHR0enp6cLCgp6enosFotIJHJ2do6IiHB2dvb19fXx8UlOTmYymREREVNTU0+L0NHRsaSkhEAgdHV1mc3mqampsLCw0dFRs9ns5uamVs90LfH5/AcPHjQ0NNTV1YGrm729PQqFunnzJthEeHi4UCj08vKamJgAItTr9UCEaWlpd+/eBcliYmI0Gk1qauqlS5e8vLz4/Kdu1+eDBeetIIFFRJiUlDQ5OdnT01NdXa3VavF4fEJCQmdnZ1xc3Pj4+PT0NJvNdnJyIhAIFosFg8Fwudzi4uLy8vK8vLzKysqUlBQMBiMWi7lcbk1NDSizQqHIyMiQy+U+Pj44HC4kJKSlpSUnJ6ezs9NgMAARpqamUqnUsrKykpISgUBAJBLz8/P7+/ut+z+sCTxThBFsyzXqzMd3eEaEQ3pLyKhlT8uM2w51WfhGy/9HnFHa+JQlkWuxo1mCRy1Huy2X+39tEToxZvR5sMuinLDs67BgJBZvliWVbykUWob1M2qEARKABF6cwPOIcE7X6OTkZFRUVFZWVlBQ0Pj4eF5eHrj6dHZ2JicnFxYWlpeXWywWrVZLpVKHh4cXEqF116jFYkFEODEx4eXlNTIyYrFY2tvb4+PjSSRSZmamxWJhMpmhoaH19fWpqanT09Mmk6m3t1cul88rwurq6tzc3OnpaYPB0NfXJxaLeTze5OQkhUIJCwt7cZQwh2URWESEoGt0eHgY3BjRaDQ0Gt3T05OQkKDRaIaHh1ksVkVFBQqFUqvV1dXVHA4Hh8MxmcyxsTE+nz88PCwUClNTU9lstrUIs7OztVptcnKyXq+nUqlcLlej0ZSVlY2MjMTFxSkUiqioKCDCsrIyPp8/Ojqq0+mys7M1Gs28VXumCLMEllM9lp96Z54RpvFnDNeinDFflcRyrNsiMFlsOi2eQxai3FIiskSxZ9qFDfIZcfb9skEgQttui2rC8sMvIiwXW8LZFrLScoc+b7ngTEgAElgegecR4aFDhx48ePBwNuTn55PJ5KioKLPZnJiYiMVic3NzL168GB0dff/+fYVCoVQq79y5ExYW5uLi0traOjIyAkQ4Pj7u4eGRn5+P3G4vJEKLxTI4OOjs7BwVFXX37l2xWEwikc6cORMZGenq6srn83U6nbu7e0BAgLu7e2VlpVKpREQYHR2dnJzc3NyMQqE0Go2Li0twcLCbmxuBQBAKhc7OzqCcoAm7PHIw9YsRWEiEZrM5Pj4+Ojo6Ly/PYDBIJJLk5GQikTg0NMTlcpOTk1taWiQSSVdXl0QiaWtr43A4ZWVlBoMBhULl5ubq9XoikZiYmDg6OqrX64EswX0YiUSyWCy9vb1xcXFUKlUsFqekpFRWVo6Pj/f09IBufC6X29bWNjw8XFFRweVyExISCATC83WN9mksTYqZxh9ONtOHWS+fkdzFfkvA8MxkyKhFPm4JHJl5ghgyalFPWJ6wLFepFprWUiayBM/c9c2EDP5MP2rwiEU/OdOs7FRbioQW45TFh2W5SbPwrR4f/rwC/AcJQALLJ7BsEU5NTamsgsFgMJlM4+PjFotlYmLCYDDk5+cTCASNRoOMCB0fH1er1Xq9fnp6GnSKgnKaTCadToeUWa/Xz7niGI1GZI7RaFSr1SBPEolUUFCg0WhMpp+vBBMTE2q1WqfTgfF+4LGQxWIZHx/XarUTExNgReuSWCwWk8mkVquRxEhJYOQlEFhIhC9h0yu1icVbhCu1FZgPJAAJrDaBZYtw8QJNT0/n5+eDW+/FU77IUhKJVFRU9CI5wHVfOQEowle+C2ABIAFIABBYYRFaLBadTgdGbK4eYqPRaN2UXL0NwZxXjwAU4eqxhTlDApDAsgisvAiXtXmYeMMSgCLcsLseVhwSWGsEoAjX2h7ZKOWBItwoexrWExJY8wSgCNf8LlqnBYQiXKc7FlYLEnj9CEARvn77bH2UGIpwfexHWAtIYB0QWLYIp6am1Gq1FAZI4BcCMpnsOV5BUSgUr/v5o9FofmEA/0MCkMDaIqDX65d+hVm2CBUKBfKC4NI3A1OuYwLT09NarXa5LhQKhWYYIAFIABJYHQLIO+hLufYuT4TT09MyGfyi36WA3VhppqenJRLJ0us8PT0NRbg6pz/MFRKABGYIqFSqpV+RoAiXzgqmXIzAsp75QRHCaxUkAAmsKgG5XL7YBes/l0ER/icPOPW8BKAIV/WshplDApDAsghAET7vtRyu9wIEoAiXdZbCxJAAJLCqBKAIX+ByDld9XgIrKEIWi8Xn881ms1AolMlk1meLyWQCkyqVislkWi8ym816vb63txdJM2fp6z6p0+lqamoqKyt5PB6BQKioqMBgMFKp1Gw2CwQCPp9vMpkoFEpzc7PBYBgaGqqoqGhqajIajUjFORwOQFpTU9PT0wPmG43Gnp4eo9FoMpn6+vp0Oh2TycRgMDQazWw2g99AxmAwbDYbyeflR4xGIx6Pr6ioqK+vB1/oP6cMCoUCj8dTqVTwXfxzlj5zUiwWg0PumSk3ZgK5XF4xG0gkksFgaGpqotPpCAqxWIzFYsERYjKZ6HS6wWAAS9lsNjiFx8bGRCKRXC7H4XCNjY1arVatVtfU1FRUVLS0tFgfpUi2LxiBInzeazlc7wUIrKAI8/LyvLy8DAYDmUzu7+9HzgcGg4HH45ETLCsrC1kEIkqlMiAgQK/Xz5m/PiY5HA4KhVIqlQaDQa1WC4XC8PBwlUoFfuOaQCCQyWQMBtPa2gpSgh9cROqu1Wrd3NzIZDIejxcIBCkpKRwOx2w263Q6Pz8/jUZjMBiCgoIYDEZiYqJUKs3Pz2cwGAUFBf39/TKZLD4+XiAQILm95IhGo/H19ZXL5V1dXTk5OU/f65SXl/f19eFwOKFQGBsb+3SCxQvc3t5OIBAWT7ORlxqNRqVS2dXVhUKhyGRyXV1damqqXC43m80GgyE8PJzBYAQGBioUCiKReO3aNfBLQWazGY1GDwwMmM1mEolEJpOjo6NZLBb41U8+n5+cnKxUKslkckFBwYrjhSJ8gcs5XPV5CaysCDMyMhoaGshkcl9fX01NjZeXV0VFRUpKyp07d8A5xmaz79+///jxYzwePzo66ufn5+XlxeVyAwICxsbGwsPDHz58ODAwEBgYGBwcHBgYqFargV9bWlr4fH5gYGB4eLhEIlnx02/1Muzu7s7Nze3s7ASmb25ubmlpMZvNFAolJyeHQCDk5OR0dnb29vbq9fqQkJCGhgZEXSaTiUQipaenk8lkUEIUCjU8PPy0CIeGhoKCgshkslQq1ev1BQUFQ0NDZrO5s7MTi8WuXu0Wz1mj0QQEBBiNxpGRkeTkZBKJFBAQQCQSY2Njvb29+/r6HBwcQkNDc3Jy6uvrjxw5wuVywbhBDw8PPz+/nJwcqVSakJDg6+tLpVITExPBcWI2m9ls9uPHj319fXE4XE1Njbu7e2pqKmh2d82GxQu2cZaaTKaUlBSVSlVQUMDn8zEYDIvFMpvNJpMpNze3tLQ0NjZWo9GMjIyA0w2QsRZhS0tLYmJieXk5h8PRaDR8Pj8jI8NsNhuNxvDw8OXeuzyTPBTh817L4XovQGBlRTg4OBgfH4/FYltaWtzc3BobG/38/Jqamqqrq8EJwGazY2JiDAZDVFSUSCQikUiBgYF9fX0BAQEymaypqSklJQWLxfr5+YnF4ri4uM7OzsTERHBji0KhKisrCwsLMRjMM0+ntZOgo6OjsbERi8USCASdThcbG6tUKlUqVVVVVXNzM4FAiIqKolAoxcXFFAolOTmZyWSGhIQolUqz2SyVSuvq6rBYLBBhf39/UlIS6I/S6/UBAQFIi1A2GxobGx89ekSlUhER9vb2otHoV0VDo9FcunTp/v37QUFBQqEQj8c3NzeTyWQSicTj8TIzMwsKCmg0WmpqKpvNDgwMBFdVlUrl7u6uUqkyMjLQaHRycjIej4+KigoPD0c6QlEoFIfDaWtrIxAIVCq1rq7Ozc2tv78fi8VmZmbO6Zl/VdVfC9sVCoXp6elms7moqEgsFtfV1YE7JK1WGx4eTqPRYmJipFKpwWAIDg5GWoQYDAZ06pBIpNbWVp1OR6PRYmNj8/PzeTweEKHJZAoLC1snIuRwOFevXn3w4IG7uzudTre+ooIvo7GeYx03Go3ID8oj8/V6/cTEBDIJI2ufwMqKkMViDQ0N3b59u6Wl5cmTJ4ODgxQKpaury1qE0dHROp0uIiKioKCAQqEkJSX19vaChgIGg0Gj0VgsNiQkRC6Xx8fHd3d3x8fHGwwGHo9XWFjY1NTU29sL+gbXwlVmKWWQSCRqtZpGo1VUVEgkkuzsbLPZTKVS7969e/XqVVdX19LSUi6XCzo/ORyOTqeLi4sDrd62tjZHR8eLFy96enr29/enpaXpdDqwUZPJFBcXNzY2plAoAgMDgW5NJlNXV1dJSQkQodFoLCgosH4stJQCr2AapEUI8qyvr+/s7GxrawP9AVlZWdYiDAoKQkT48OFDpVKZnJxcW1sLOnt7e3ujoqLEYjHIqrCwkMlkksnkqqoqHx8fGo3m5eUllUojIyNzc3NX/Oq8gkxeclbAZGazubq6mkajFRYWjo2Nmc1mpVLp7++vUqlSUlLYbPYcEba3t2MwGJPJVFxc3NXVlZ6ertVqZTJZWFgYm80GIuRwODExMStenVfTIhweHn78+DHyMr9SqRSJRCMjIwBcVFSUQqHg8/lcLlcoFE5NTQGIFovFYDDY29uPj4/rdDoWi6VUKrVa7f379/v7+1UqFZiz9jUAS7iCIqyuruZwOCaTKSsri06nNzY2enp6lpeXgy5N8N1GfD4/NjbWx8enq6urt7f3yZMn2dnZ3d3dqampw8PD3t7eeXl5eDw+PT1dqVQWFBQIBILKyspHjx51dnaKxeLQ0NCQkBCRSLTip9/qZcjlcoODgyMjIyUSCY/Hq6+vR7bV3d3d2toqk8liYmLi4+PB0AZPT8/6+nqhUNjb2wtSksnknp6eiIiIe/fuubm5IWIbHR0NCQnx9fWl0WharbasrMzDwwOgq6mpcXJy8vT0xOFwqzGiAanC4hGdTpeSkoJoqa2tjUajqdXqtLS0wMBANptdW1vLYrFKS0tFIlF4eDjotVOpVM7Ozv7+/lVVVaBd+OTJk76+PhQKhTT1JBJJaGhodHQ0mUzOzMyMiYmJi4tTKpWFhYUNDQ2Ll2pDLa2urubxeGazWSaThYSEFBQU6PV6HA6n0+laWloePXqERqONswHYDsDR6XQoFOrhw4doNFqv13d1dfn5+QUFBTGZTJFI5OTk5ObmhtyurSzPVybC48ePP3z48NGjR2KxODc3NywsLD4+vrKysqCgICgoiEgk3rt3r7u7+86dO0Kh0MHBAXzbJBChRqPx8vIik8lPnjwZGRm5evUqhULx8PAoLi4GrWZomjVOYAVFuLLnA8xtwxJQqVTPN3gKPFF+ve6TNuxeXqjir0yE1i3C3NzcysrKxsbGuLg4PB6fkZHR0tISHR09OTkZFxdXVFQUFhY2PT2NtAiZTOadO3emp6fj4+OJRKKjo6NQKIyPjz979mxUVJTJZFrjGoDFgyJc6ISE818VAaPRyGKxkHbk0oshl8tBb9bSV4Ep1xqBVyZCd3d3uVwOHs5bi5BCocTExDQ2NsbGxk5PT3d1dR06dKipqQnIA7QI5XK5o6Mjh8N5/Pgxh8Px9PSk0WhpaWnd3d329vZCoRCaZo0TgCJcaxcCWB5IYCMTeDUi1Gg01dXVaDS6srKSy+WOjIzweDyxWMxgMEBXMovFYjAYFotFJpNduHABKeXk5GRra+vU1JRIJKqtrWWz2RaLBTy+5nA41dXVdDodtB3XuAk2ePGgCDfyxxczQwAAIABJREFURQfWHRJYawQQxSzlyvyyv2vUbDaHh4enpaUhw2qWUkqYZu0TgCJcaxcCWB5IYCMTWNMiXPsXdFjC5yMARbiRLzqw7pDAWiMARfh8V3K41gsRWK4IRSLRJAyQACQACawCgYmJCSjCF7qgw5Wfj8ByRbis9M9XJLgWJAAJbFgCr0yEBoNBJpNJYVinBBQKxSJf97MssU1PTy8r/YY9mWHFIQFI4PkIvBoRqlSqoaEhLpfLg2GdEmCz2UNDQwu5cFligyJ8vnMbrgUJQAJLJPBqRDg8PCyRSBQwrGsCPB5PrVbPeyBCEc6LBc6EBCCBV0Lg1YhwaGhILpevawvAyilEIpFSqZz3sIYinBcLnAkJQAKvhAAUITTWahF4OSKsqqpCoVDguxfs7e01Gs0zT6Surq7u7u5nJrNYLO3t7b29vUtJudbS6PX6+Ph4f39/gUDQ3Nzs5eVVW1sL3sc1mUyJiYmenp7d3d1qtTo0NDQ9PX18fNxisUxPT1dXVwcHB8tksr6+Pg6Hs9bqtZTyMJlMCoUyPT0dExPD4XAMBkNCQkJMTMy8X76IYGloaBgZGVlK/k+nMZvN4tlQUlLy9NKNNmdqaqqsrMzX1xe53yUQCA8ePLhx40Ztbe3AwMDjx49RKNRCz01eCS4owtXSAMz35YgQjUbHxcVNTk62tbV5e3urVCqtVjswMCCVSjUajU6nMxgMKpUKnF2Tk5NMJrO6urqlpQV8pZFGoxkYGJBIJDKZbGJiQigUjo+Pg18bYDKZlZWVHR0dGo2GTqfr9XqpVDo5OSkQCCYmJiQSiUAgGB0dXZu2AL8dYTKZlEplYGCgwWAAP7ZgsVgmJyc1Go1erw8ODq6vr6fRaLW1taAW4+Pj2dnZnZ2dFAoFg8G8pl9koVarMzMzdTpdfHw8gUAAPww7MDCg1Wp5PB6DwTAajeB4AFhAHIvFDg0N6fV6BoOhVqsnJydZLBaHw5mentbr9TQaDenemJqasj54xGJxf39/TEyMRqMZHR2dnJwcGhoSCASv5IK+FjaqUqnS0tJEIhG4QwVFGh8fT0pKksvlUVFROp1OpVKtqaNrbYlQLpePjo5ChawPAi9NhGVlZRwOp6CgICUlRaFQlJeXt7W1BQYGcjic9PT0lJSUsbExcDYSiUQcDhcfH4/H452cnIaGhsrKytra2gICAmpra0dGRuLi4hgMRm5ubm1tbV1dXWxsLJlMjomJ6ejoiI+PLy8vFwgE4NfRsrOzfXx8SCRSRESERCJZCxcg6zJUVlZmZWWFhoaOjY1FRUV1dnaGhYUNDAwgaeh0OgqFqqmpkUgk7e3t4BsNp6en6+vrIyIiSCRSd3c3m81eU1crpPCLR6anp3NycphMZldXV05OTmdnJ4PBCA4Obm9vDwsLa2pqKiwsBDmwWCwajQbiWCyWTqcnJSW1tbXFxMR0dXWVlpZiMBiRSAQyqaioAF/fqNPpnJycBgcHKyoq2tra/P39u7u7ExISeDxeTk4OHo8nEAhpaWlIe2jx0q6/pSKRqLy83GAwpKamIrUbHBysq6vTarV+fn6RkZGlpaWTk5PI0lceWUMiBL+L7ePjI5PJ1ocJNngtXpoIBwYG0tLScnJyMjMzFQpFQUFBTEzMw4cPDQZDRkZGXl4e8vWzKSkpGo2mr6+vvr4+ODh4fHy8sLAwOjr6wYMHDAYDh8Ph8XgsFltTU5OYmKjVaru7u3E4XGRk5MTERHR0dGtrK5FIrK+vJxAIzc3NkZGRKpUqJyeHx+O98jN5TgEqKioGBwdZLFZ5eblWq2UwGOnp6aOjoyAZl8tNSEgwGo3V1dVcLpdEIgERgqUmkwmNRqNQqIqKir6+vjk5vxaTWCy2trZWpVLhcLiysjKZTBYcHNzZ2YnD4WQyWWZmJqgFHo/X6XQgjsViu7q6QkJCxsfHk5OTWSxWQkJCUFCQWCymUqm+vr75+fngtkCn0wUFBY2Pj5eUlERFRbm5uQ0NDRUVFY2NjeXk5CQkJOh0usbGxq6urteC1YoXEvyynlqtTkpKQjKvqKiQSqU6nc7X19doNGZkZKypRvMaEiGbzSYSiSEhIVCE68OgL02EYrHY2dm5t7c3KytLJBL5+PgMDAw8ePBgeHg4KysrJSUFabHh8fiGhoasrCw8Hh8SEqLX60FiNzc3qVQaFBREp9Ojo6PpdDoWiyWRSBkZGUB4DAYjPDxcJBL5+fmBX6blcDhRUVFqtXptipDBYBAIBFDfqqqqwcHBiIgIg8Gg1+s1Go2fnx+Hw1EoFFQqFYPBZGdng9/7BJet3t7ewcHBnJwcEonU2dmJXMteowiNRouLi5uYmBgYGEChUKAfuLOzE4/HIyKcnp4uKytDbpKwWOzAwEBsbOzAwEBYWFhPT09XVxeJRGpsbMThcDweLyUlBfSp6nS64OBgvV7v6+tLp9Pd3NzAkQZahFVVVRQKJTMzcw3eHr2cPWgymRISEpqamohEoslkmpiYmJqaSkpKMpvNk5OTOTk5DAYjMjIS6Wp+OaVafCtrSIQKxcw4w7CwMChCKELro3bx9wiFQqHZbB4dHTWbzVwud3x8fHh4uLu7e3BwkMPhaDQalUqFdFJNTk52dHRQqVSJRDI0NDQ9PT0yMgISm83mgYEBo9E4MjIyPj6OpFQqlVKptKmpCTzVoFKpZrOZxWJNTEywWKzx8XEul2swGKwLvBbi09PTdDq9u7t7YmJCoVA0NTXJZLLJyUnwTgthNnR2dk5OTvb09LBYLMQH09PTfD5/cnJSLpe3tbWtqf6rpYM1Go2Dg4MWi8VoNAqFwqmpKSaTqVQqJRKJ2WwGD0SnpqasGyVisVir1apUqubmZolEMj4+3tnZ2dHRMTExoVQqSSQS0p4GT5qnp6fZbHZXV9fg4KDBYOjs7FQqlVwud2Jioq2tjclkIkiXXux1k1IgEICDRyaT6XS66elp5BjT6/UtLS3I04o1UmUowvUhnbVYi5fTIlwjJxIsBiQACby+BKAI16JC1keZoAhf3+sCLDkksKEIrC0Rrg8BwFoAAlCEG+pSAisLCby+BKAIobZWiwAU4et7XYAlhwQ2FAEowtXSAMwXinBDXUpgZSGB15cAFCEU1moRgCJ8fa8LsOSQwIYi8GpEyOVypVLpal2AYb5rgwCfz9dqtfOeTsj7DPMunTNzenoavCNhhgESgAQggVUg8GpEaDQa2Wz2Ov0lPlitGQIcDofH4y30BV1QhKtwLsMsIQFI4DkJvBoRWiyWqampCRjWL4HJyclFXiiGInzO8xWuBglAAqtA4JWJcE73F5zcUASgCFfhXIZZQgKQwHMSgCLcUAJaK5WFInzO8xWuBglAAqtAAIpwrbhhQ5VjBUUolUoHZgOTyTQajcs6R0wm09PppVKpVqt9ej4yB/wwITK5ZiPgazZNJpNKpRocHJTL5WazeWxsjMlkGgyGNVvsFSmYSqViMBhcLhf8IqNarV6RbE0mk9FoFAgEK5LbOs5EKpWyWCzkfDQYDCwWi8/ngzNOPRvWVPWhCDeUgNZKZVdQhHl5eVVVVZ2dnX19fcu6vvf29g4MDMw5G00mU0FBAY1GmzPfepLNZufl5VnPWYNxo9FIIBAeP36s1WoLCwsbGxujoqKEQmF+fn5VVVVFRcUaLPNKFclgMMTGxlIolNLS0t7e3vr6+s7OzhfPXK/X5+XlKRSKpKQk5BL/4tmuvxx0Ol1CQkJZWVlzczOoXUdHB4FASE5O5vF4Uqk0ICCgtbV1TVUcinCtuGFDlWNlRdjW1sbn88VisVwuLy4uFolEFRUVarU6Ly8vMjJybGyMx+OFhIQUFhbKZLKSkhKdTpeTk+Pv7+/r66tQKDIzM2NjYyUSCZPJDAgIePLkCSJCEokEfmqntbU1MTGxo6MjKSkpOjo6OzubzWYHBweXlpZKpdK4uLjs7OzMzMywsDDw+wav/CRXKpX19fX+/v7g5oDH40VGRup0OqPRSKFQSkpKXnkJV68A4AeShoaGZDKZQCAgEAgJCQnBwcE8Hm9oaCggICA9PV0ikcTFxaWnp4MfHWxra1OpVCkpKYmJiQqFwmw2GwyGvLy8qKiogYGBkJCQ+Pj4rq6uo0ePDg4O5ufnKxSK5OTkhIQEpVK5ehV5TXPm8/kZGRkSiSQhIQGpglqtzszM5HA4AwMD+fn5FAoFWbQWIlCEG0pAa6WyKyvCnJyc2tratrY28Iuyjx49Gh4ebmtrQ6PRNBotMzMzJiaGz+cPDQ2NjY1FRkaCH+Srq6vr6OggkUh1dXXd3d35+fnh4eFCoTA5ORmIUCaThYeHKxSK0NDQ0tJSMpncOBuoVGpGRkZ4eDiTyczKyiKTyX5+fmNjYwEBAXQ6fe30m8nl8sDAQIPBYDKZenp6IiIiJBKJTqerra3NyspaC1ef1SsDh8PJy8vz9/enUqngx5a7urowGMzAwACDwfDw8BgcHPT395dIJC4uLiqVKjQ0tLKysrGxkUKhVFVVmc1m8FuV4LBhMpngdygDAgJkMllQUFBtbW1HR0d7ezsWi129WrymOXO53JKSErVanZycjFRBIBBkZGT09vaazeaGhgYowrVyLYbleIUEVlaELBYLOd+amprc3NxkMll9fX1YWFhRURGJRAoNDVUoFAaDQSL5/9l7D/9GkvPO+/6Sle+VX4d7nX2y/d5Z5/O9lizLt7Yla31rWRu00s7u7M7OTuKE5cxwhjkngGAAmPMwgsMIRjAnEMwZkQAaQAfk1EB3vx+ypBKXJLDkkCBBsuqDz0yh6qmnnvpWd//Yje5qc05Ojs1mS0xMBELY0dGRl5fX2Ng4NjaWnp5utVrb2tqAEGIYxufznU5nZmamWCxeXV3t7e2Vy+U6na6mpub58+d1dXWvXr1aXl4WCAQej2dpaam0tLSlpeXInx5hhOeWgULocrngJV+Xy+V2u7OzsyMkyHDQIAhieHjY6/XqdLrc3Nz+/n6ZTLaystLW1lZQUCAWi1++fLmxsVFQUIDjeHJyssfjKSoqqqmpKSoqamxsnJ+fB0IIXhJeXV3d2NiYlpamUqmgELa2tq6vr6+urr5+/TocQ7jUPo1GY1lZmcFgKC4uBgMBf42trq62trYiIbzAAy/qOrIInKEQ1tfXx8TEpKWl8fl8hUJRWFi4trZWXV2NYVhubm5aWtrw8PDk5GRqampubi6O4wkJCYWFhbGxsTKZLDs7W61WZ2VlpaWlTU9PDw8Pp6WlffXVV0AIPR5PeXl5amqqWCzu7OxcXV3FMCwzMzMrK6uiokIqlaampqalpW1sbOTn5xMEkZOTk5mZOTIyEiFHMZIk09LSHA5HbW1tenq6UCiETAYGBiIkyHCE4Xa7a2pqsrKyeDze8vIy+I1wZWXl9evXJSUlubm5z549W1xcBEJ469at7OzsV69eqVSqjIyMtLS0xcVFIISZmZngYntGRkZ8fPzm5uaLFy+WlpaAKGZmZqalpSmVynAM4VL7dLvdJSUlSUlJGxsbm5ubGIbJZDKw4+h0OiSEXzsWkyRZXV3d29t7zFdgu1yu3t7eYCuVfM01+hLxBM5QCC/1IQMFf7EEcBy/2ifHF4v3EvV+Mb8RBgKBxMTExcXF9vZ2o9Eol8sHBwdDH71xHH/w4IHf7w9thmovBQEkhJfoGHGFQ7XZbENDQ1d4gGhoxyRwYUKYmpp648aN5eVlv9//5MmTO3fuLCwsxMbGxsXFTe6lL7/8MjExsaamBpwF7hfCQCBQWlqalJQEbnzIzs5+8eJFUVGRRqN59uzZV199NTs7C/SgqalJLBaPj4/n5eUtLCw8ffr0q6++0mq15eXloC+CIJ49e5aXl/fee+/ZbLacnJy4uLj29vYQy4NdCqWJ8CCREB5z/0RmiAAicA4ELkYIOY5zu91FRUU//OEPZTJZbW1te3t7fHz8+vq62Wz+5JNPRkZG+Hy+1Wq9ceOGzWbjOG6/EGq12rt37zIMIxAIpFLprVu3oqKipqen19fXf/SjH/H5fAzDgBI0Nja2traOj4/z+XypVPqjH/2oqqrKarX29PQUFRX95Cc/kUgk6enpXq/3s88+W11d/Y//+I+6urqPP/6YpukI15JLHR4SwnPYt1EXiAAicEwCFyOEgUBgenra6XSWlJT09PQAuRIIBKOjo1tbW1999dXY2FhcXJxer799+7bb7T4ghDiOg/LU1NSlpaXx8fGpqakPPvhgfX1dLpdXVFQkJCQAnWhtba2vr29vb+fxeEqlcmVlJSkpSSgU/vKXv9ze3n7//fcnJiZevHhBkuSHH364tbV1584ds9k8OTmJzgjDKrRICI+5fyIzRAAROAcCFyOELMvOzMzExcVVVFR4vd6dnZ24uDhwuy2fz7dYLJOTky9fvszIyFhZWQFHZJvN9vLly+d7aWdnZ35+PjExcXh4OBAISKXSuLi4vr4+h8NRUlKSkpKiVqtBK5Ikk5KSWltbOzo6wH19PB6PJMnW1tbs7Gw+n280Guvr68vKym7duuXxeIaGhuLj49fW1sIqA8g5EsJz2LdRF4gAInBMAhcjhN+oBJOTkwKB4BxOy0wm08OHD7u7u1NSUs6hu28c+DUxOKkQGo3Gq/vGKjQyRAARuEgCNE1HqBD6fL5gLzc/W6lgWdZqtZpMJq/Xe7aekbcQBE4qhCeyD9EvqkIEEAFE4DCBCBXCw4GikqtE4ETCxrLsieyvEig0FkQAETgHAkgIzwEy6uIggRMJGxLCg/jQd0QAEThTAhcmhIFAwIvS1SXg8/lCLAOEhPBM92LkDBFABE5F4GKE0O12KxSKra2tbZSuKIGtrS2NRhNMC5EQnmqvRY0RAUTgTAlcjBBqNBoMw0iUri4BgiA0Gk2wO57OVgj1en1zc/ORN/3q9Xq5XA52mYGBgWDxHGef8vl8YrH4sizyR9N0bW3tJQr4OFNwfJu1tbXU1NRXr175fL5grcADysFqYTnDMGDRdqlUGmxhZIPBIJPJurq6wMs9YNuTZhYWFgwGw0lbRZo9wzCdnZ3gFWYwNqfTKZFIWJbVarU8Hk+hUMCqSMhcjBBubW2RJEmhdKUJYBhmsViO3MrPVgg7OzuLi4vBcY2maZ/PFwgEwL8bGxvg9XIsy66trXk8HlDl9/sDgQDLssxeYlnW6/WCEnCw8/v9DMOAQjAEt9udlpbmdDqhgdfrZVkW9rXf+MhRn2fhwsLCyMhId3e3SqU6z34joS+aptPS0nw+3+rqKlQvhmHAZHm9XoZhXC4Xj8cDGwAoYRjG7/fDjQf+XQVebMkwzODgIHhJANxswBbi9/vBZra4uEhRFJ/PDwQCsDsAhGEYsGWyLAv+lvL7/SzL0jQNNhvwU0Jvb+/a2prP52P3EggGmF2ita68Xu/29rZOpysrKwPDdzgcGRkZSUlJNE0XFBTodLqioqKI+psSCeGV1qILHZzRaDwHIfT5fNXV1XK5fHJy0ul03r9/HywkW1VVVVBQsLKyEh0dXVJS0tnZWVpaajabi4qKqqqqoqKi2tvbt7e35+bmxsbGXr9+LRKJhELh9vZ2Y2Oj2+3m8XgSiaSioqKqqgpc4HW73Xfv3i0rK+Pz+SaTqaSkRCAQ9PX1FRYWFhcXNzY2lpeXV1ZWBjtpOGeFGBwcVKlU8/Pzc3Nz59z1hXfHMIxIJAKnHSzLisViiqL6+vo0Gk1VVVV5eXl7e/vGxsann35qsVjK91JjY2NnZ6dQKExMTKyqqsrIyNje3uY4jmXZ/Px8cJR0uVzp6emtra1arXZiYmJ2dralpaW0tDQ7O3t5ebm9vZ3P509NTX366aezs7MjIyNarba3txfQkEqlmZmZfD5/eno6KyvL4XCIRKLV1dVHjx6JRKK0tDSRSNTU1NTV1ZWeni4QCJaXlzs7O0tKSoqKira3t6Ojo8fGxi4c7PED8Hg86enpU1NToAlN0yaTKSsrC/z94Xa7BQKBy+U6vsNwWyIhvFCtuNKdn48QLi0tPXnyhM/nx8TE2O32lJQUh8ORlpZmtVrT09OXl5fb2tr8fn9hYWFpaenGxoZQKPT7/VlZWVAI+/v709PTfT5fZWXlxMQEFMLBwUEejzc+Pg5ODtxud2JiIrhAqlQqW1tbRSJRVVWVUCjEcXxoaGi/cbj322/0D4RQLpdfQyEEcMxmc0VFRVtb2/r6+sjISElJCXhPIZAZ8LcOjuM3b94UCoWPHz9+/fr1+vr62NiYXC4fHx8HC/eHEEKZTDY3N1dVVfX48eP5+XkghOBlzjRNl5SU9Pb24jgOghkZGZmbm9vc3Gxvb98vhPn5+VarlcfjEQTB4/G6u7tXV1dNJlN5efm9e/cKCwufPHkyNDRUVVX1jTMeaQZutzsrKwueWFutViCEubm5brc7Ly8PCSEXpkujOI6jK66Ro63nI4Q1NTXgomhTU5NGo0lPT98vhEtLS8XFxRRFFRQUlJaWajSa3Nxcq9X67Nmz7u7uubm5np6egYGB7OxsgiD4fP7i4mJpaanRaExJSVleXvZ4PMXFxXa7HSwTHx0dDVyNjo62trbOzc1VVlYWFxeTJLmysuLxeEpKSqxWayQckhYXF4eHhzs6OuByg5EQ1fnEYLFYBAIBTdNKpbKiosLtdsfHx0skEr/fv7Cw4HQ6s7Ky7HY7j8dzOBw8Hs/r9U5NTXV3d29tbR0QQo7j5ubmmpqaFApFVlbW0NBQZ2fn0tJSW1vb6OhoQkKCyWSKiYmBQmg0Gvl8PsdxYrGYx+PBywOjo6MLCwubm5sdHR3Z2dlGozE5OXl1dbWoqMhms0Eh7OzsHBoaWllZAc0pipLL5RsbG7W1teeD7kx6cTgcy8vLVquVz+cfEEKapouKirRarVAohHDOpNNTOom4M8KRkZGUlBSBQJCfn7+ysnL8wzpJkuXl5Ts7O8dvgizDSuAchDAQCIyMjIB9QKvVrqys9PX1eb3e3t5et9vd19dnMBh6enoKCwsJgpiYmHA6nXK5vLi4OD09naKooqKivr4+lUqFYVh+fv7CwkIgEGjZS+Pj43q9PicnRyqVgp2ZpunXr1+XlpbK5XKPx1NZWTk4ODg+Pj42NuZyuQwGQ25u7tDQENzzT7lnnrI5GIhEIgl24+4p/Ud4c5VKlZub29DQAFaMamxs1Gg0LMsuLS1lZ2cvLCywLFtfX28ymVZWVrKzszc2NtbW1sxms0Kh2NnZUSgUGo0GjnFxcTE9PR2cX1osloKCgv7+fq1WOzY2Vl1dLZFIVCrV0tLS0NCQy+UCbjc3N5uamqAH8JuZ2WxeXV3d3t4WCAQSiQTDsNHRUbDEsdPpHBoaWl1d7enpqaqq8ng8JpNJIBAMDAxQFAXfKwcdRnKGYZi+vj6BQGCxWBQKBTgtdrvd/f394JlgoVCo0+kiagiRKISzs7MURel0uvz8fLVaXVxcnJOTI5FIwFEbw7DExEQ+ny8SiXAcb29vz8nJKSsrW1tbe/z4MTAjSbKsrGxjY0Mulzc3Nw8PD+fk5BQWFur1+p6eHh6PV1JSotPpwioD18350tLSe++99+6771ZVVYGxn4MQnnRf8vl8AoGgvr7+1atXEaJYJx0Csj8pAb1eX1VVFeL20eM7POY24/P5ampqTnRH2PFjQJbhIBC5QkgQhEgk6ujomJycxHEc3GtEURSGYbm5uSRJgl+bi4qKCIIYGBiYmpoqKysDZ4QkSZaUlAAhbGpqamxsBD8IqdXq5OTk7u7uioqK4eHh66ZV4R5vcnLyxx9/rNFoIlYIOY7z+/3gbs9w7E7IZwQSYBjmnK/Cgfs8IxAFCikYgcgVQgzDBAJBe3u7TCYDoghEDsMwHo9HUVRxcfHS0lJpaSlJkqOjo5OTk4eFEFzfx3F8dnY2NTV1cHAwPz9fp9Pp9Xocx8MtDNfN/8LCQl1dHRx1BJ4RBtsNUDkigAhcZwKRKISNjY0jIyOvXr0aHx/f3NwsKyuTSCQ1NTXgRpj9QqjVasvKyvr6+kQikVqtrqysnJ6eBgfi7u7u+vr66urqpqam9vb23t7eqqoqcOuERCJpampaXV2Fh2yUORMCJEkSBAFdISG8zkcWNHZE4BIRiDghNJlMir20s7MDlE+v1yuVSngCR5Ik+HlPr9eTJGk2m5VKpcFgAFdN4c0yBEGoVCqdTodhGI7jSqVSq9VSFAXsoXN41EaZMyeAhPASHQhQqIjAtSXAsmzECeGZH46Rw4sicIZCiOP4Of/Mc20PCmjgiMB1I+ByucAjUscc+H86ph0wY1mWIIgjm4TpOcKLOuKjfo8kcFZCyHGcx+Mxm81GlBABRAAROGsCJEme6O9sJIRHHvBR4dEEzlAIOY4D9/4FUEIEEAFE4EwJHPOpGHhSd2ZCqFKp9t9VcfRxFJVecgJ6vd5ms8GtZ38GPWK1nwbKIwKIwCUicGZCaLPZNBoNjuMESleUgNFoVKlUwRaYR0J4iXZ7FCoigAjsJ3BmQghWbiQIAkfpihKgKCqYCnIch4Rw/36F8ogAInCJCJylEF6iYaNQz5wAEsIzR4ocIgKIwPkQQEJ4Ppyvfi9ICK/+HKMRIgJXlAASwis6sec+LCSE544cdYgIIAJnQwAJ4dlwRF6QEKJtABFABC4pASSEl3TiIi5sJIQRNyUoIEQAETgeASSEx+OErL6JABLCbyKE6hEBRCBCCSAhjNCJuXRhnVQIvV4vjuNms9l0zRJJktfzFfOXbpNGAV8fAkgIr89ch3ekJxVCHMevpx74fD6r1RreyUDeEQFE4CQEzkwIMQyb20tyudzpdIIYGIbZ3t4OdrzT6XRzc3NyuTzYQt4Mw2xtbSmVSrVafdK1404CAdmeAYGTCuFJ7c8gxIhxgeN4xMSCAkEEEAHuzITQarVOTk7evXtXqVR6vV6A1uv13rp1y+12HybNMEx2dnZra+vi4uL9+/d9Pt9hG51OFxWk6iTJAAAgAElEQVQVtbi4WFBQ4PV6u7u7T7Sg+GGHqCR8BE4qbCe1D1/k5+8ZCeH5M0c9IgIhCJyZEHIct7Oz8/Tp00AgsLa29vLly7S0NLvdfuvWraWlpezsbKPRmJmZmZuba7FYwJsHcnJyJiYmfD7f7du3CYJ48eJFQUGBVqsVCAQJCQkbGxsVFRVvv/12W1ubQCDo7e394Q9/2Nvby3Gcz+dLTk52u925ubkEQTQ3Nz979qyrq8tqtfJ4vOjo6LW1te3t7WfPnuXl5TU3N2MYlpycXFhY6HK5QrBAVachcFJhO6n9aWKLtLZICCNtRlA815xAWIRwYWGhubn5xz/+8dbW1s9+9rMPP/xQrVZXVFQ0NDTU19e/evUKCGFmZubNmzefPXsmFos9Hs/HH39ss9lKSkqGhoYMBsPt27fX19efPn2qUCieP39uNpvv3bsH1roEJ5oOh+Px48cajebjjz8uKiqamprCcVwsFkdHR+fl5T1//nxxcbGlpUUoFGZnZ/f09BQWFvb391/z+Q7f8E8qbCe1D1/k5+8ZCeH5M0c9IgIhCJy9EPp8vqioqLm5uXv37m1ubn7wwQfx8fHt7e2FhYVFRUV9fX0bGxv7zwhBcEDbPB6PQCCYnJwkCOKzzz5bW1uDQojj+AEhtNlsd+/eNRqN8/PzxcXFv/jFL+rr6/Pz89vb23Nzcx89erSxsdHZ2SkUCpOSkmpqaiQSiUajCcECVZ2GwEmF7aT2p4kt0toiIYy0GUHxXHMCZymEOp0uISHB7/dXV1fHxMTcunVrbm7u4cOHGIY9ffp0fX09ISEhNjZWpVIBISwoKJiengYT4PV6Hz586PV6DQZDSkpKUlLS1NSURqOJj49XqVSJiYkulys6OloikYC2PB5PIBDcuXPHYDAIhcK4uDiBQLC4uPjgwYPExMTc3NzZ2dno6OiUlBSRSLS5uRkbGxsfH282m6/5fIdv+CcVtmD2NE0LhcLCwsKmpqb9vxzTNC2RSGiaPukQAoGAXC4HreRyeUFBQWFhYWVlpcfjOeyKZdmhoSGn03lkLcdxWq22oqJCLBa7XK7BwcEjf//mOC4QCIQINYQQshxXbeBWHQdD87NcmpITm7iZIDecugOclznY6vB3zMvlaw8X/6rE5ucCbNBaVIEIXFUCZymEkcOIZdn+/v7JycmmpiagnZET21WNJJiwBRtvMHuPxyMSiTiOm5qaAn8n+feS1+vNz8/3er1AY1iWDQQCoAr8bUTTNLi1GBaCrm0228jICMh3dXXtvyrAMAxN036/n9lLwOfa2prFYhGJRIFAgN1L8LZnkiQrKyvdbrdSqezp6SkpKSFJElyuB66AH7/fv7i4ODk5GWzsoYXw8QYnJTma5XzM7ofjOD/L2f3cP8u4UYpTujiG3dU8/55i0SznYXbVK1HBDZIcy+1W+ZjdjI/ZzQNdY/bKaZbbdHE/X/xVE2AMbHzMbhf/R85pj/jzINg4UDkicEUIXE0h5DiOJMm6urqOjo4Qf5hfkTmMjGEEE7Zg0QWz93g8z549q6yszMvLoyhKo9HU1tYWFhYqFIr8/HyTyVRbW1teXj4xMSESiWpra4FZXV1dQ0NDV1eXXq+vqKiorq4GFx44jltdXVUoFCCMrq6uvLy8ysrKnp4ev99fX1/f2NgYFxc3NjY2MTFhMpmamprKyspkMll0dPT8/Pz4+LjBYBgYGADN5+bmZDIZyDMMk5+f39jYCO7/qt9LjY2NfX19JSUlFRUVZWVlwV7f+I1COERyv1zibixx/yTj1p3cR4vco3Xuz8a4FAXXbOTitrl7a9wny5zOs1v15Sr3Yov7yRyXpOCGKe69Be7deW7Kwn1nfPck0hXgGI7L03BfrHLvL3CzNu6PRrmH67uthinu5jL3r3PcEMn9xTgXvcn9ySjXiS6aBNtkUfnVJXBlhfDqTlmEjiyYsAULN5g9PCNcXl5ub2+32WxtbW15eXlyuTw/P99ms/X09FRWVra1tZWVlZEk2dHRsbCwUFZWBk4HwYkauDOL4ziWZbu6uuAFzP1nhDabraioyO/3l5aWHhBCDMOEQiFN09XV1cPDw/CK+vz8/OzsLHBrt9uLi4utVqtYLNbpdBMTEw0NDXw+v6+vb3t7e2lpCV72P0zgOEJ4Y3n3AmmKgive2dU2muX+fX73a8kO96M5zhnY9eplOL5mVzJ/vsjFb3Mj1K5Abji5djMXs8W9LeMce2bOAPfjOc6yd1F508W9v8hZ/bsSq3LvKuj/N83VGXaNCR/3jpzT/+rRp8NRoxJE4MoSQEJ4Zaf2nAcWTNiChRHMHgrh5uamWCzu7+9fX18Xi8VACOfn5/v6+mQyWVtbW3l5ucVi6ejoWF9fLyoq8nq9S0tLU1NT8/PzOI6DS6Dg8VMYw34hdLvdBQUFNpstJydnenpaIpFsbm7W19eXlZUZjUZwebanpwdcIwUeKIoqLS11uVwajaapqamkpMRms4nF4rW1tfz8fL1ez+fz+/v7lUrlysrKaS6NDpG7J3wbzl3la8B2RUvv5b43vfu1Wr97Dqfx7J669RLc7VVOQuwKYdLepdFUJddh3j3/46m5f5H9Ri9/tsCtOnftJy3cR0u/EsKYLa4b575Y2RXCf5FxJL17aXQHXRqFmwvKXBsCSAivzVSHeaDBhC1Yt8HsaZqurKwUiUStra0+n4+iqOrq6qmpqa2tLalUarfbm5qaxsbGZDLZxMSEy+VaWlqiKGpzc7O8vFyj0fj9/s7OzlevXoHljVwuF7xGynHc8vKyaC+Vl5c7nU6tVltbW5ubm2symVpbW/v7+xcXF4Hb9vZ2k8mkUqnEYvH+IWAYVlVV1dXV5fV6x8fHPR7PwsICRVG9vb0SiUQqla6trREEYbPZWltb4coS+z1wHBf6jLDFyG06dwXP6ON68F05HKa4qHUuQ7X7dcHOLTt2z/zqDLuXPWO3dmWvSMvJbVyqkrP5ueebXIaSo+jdm2LAT4wct3vy92CNK9RyJh9XoefcAS5fs+v53hon2tkVyHzt7g+HtQbuFXYgWPQVEbj6BM5MCP1+v1arXUHp6hJYX183m83B1roLJmzB9qGT2gfzc8pyhmHKy8uPXPyTpunW1tZwxBlCCE85HNQcEUAE3oDAmQmhXq/X6XQ4SleXgNlsViqVwVbnOalgnNT+DTbuYzbx+/1HqjvLsmG60woJ4TGnBpkhAudD4MyEcGtriyRJCqUrTQDDMLBC3uGt86TCdlL7wz1e3hIkhJd37lDkV5IAEsIrLVxnPTij0YiE8PQHAiSEp2eIPCACZ0gACeFZa8WV9oeE8Ez2PSSEZ4IROUEEzopApAshQRDoimvkaCsSwjPZ8ZAQnglG5AQROCsC5yGEMzMzycnJ6enppaWlGo3m+Id1kiSbm5v1ev3xmyDLsBJAQngmOx4SwjPBiJwgAmdF4DyEcGRkZHZ2lqKo9fX1srIyDMOam5tzc3Plcjk4aptMprKyMh6P19bWRpLk9PR0Tk5OR0fH5ubmw4cPu7u7KYoiSVIsFiuVytXV1b6+vqWlpZycnPr6erPZPDc3l5ub29raajabwyoD1835ysrK06dPnzx50tjYCMZ+hkJIUdRZbcSXzg9JkmaUEAFEIDwETCaT0WgETxIf8+BwrkKI47hQKBwYGOjt7TUYDAKBAMMwiqIwDEtNTTWZTIWFhdvb23l5eUajsbW1VS6Xl5WV7ezsACEsKSnZ2NiQy+VNTU01NTULCwvLy8tqtTo/P39zc7O9vX1qauq6aVVYx2s2m6Oiot5///21tbUzF8LrfNfoMXdOZIYIIAJvRsDtdgdb6fdIh+cqhGazOT8/HygcQRClpaVA5DAM4/F4FEUVFxcvLCxUVFSQJDk5OTkxMRFMCJVKZU1NTWZm5tTUVHJyck9Pj0Qi2d7eDqswXEPnw8PDWVlZBEGcrRCyLIuE8MgdEhUiAojA6QkwDHPkKhnBPJ+TEE5NTZlMptHR0ZaWFplM1tTUBF4mAC5m7hdCpVLJ5/PVanVlZeXq6mppaalSqQRnhLW1tZOTk+3t7U1NTVKpVK1Wd3R0jIyMZGVlKZXK6enpjY2Na6hVYR2yyWTSarWwi7O6NIqEMNgOicoRAUTgTAiQJHl8P+chhJubm3V1dbW1tYODgziOkyQ5MTHR3NysVqvBERbH8dHRUYqiJicnzWazQqFobGyUyWQkSc7Pzw8PDwMzg8HQ3Nw8Pj4+Pz+vVqsbGhr6+voIggD2g4OD8MQFHrhR5mwJICE8/q6FLBEBROACCUScEJ7tsRh5u0ACSAgvcMdGXSMCiMDxCSAhvECluOJdh08IcRxvaWk5/laOLBEBROCKEWjuXJ2Y3TnRRyLddrv33rR5iAUSwiuuRhc4PCSEh3Y3VIAIIAJnQ2B4Un1SRxqd1RVRQri9vY1+ortAiTqfrjEMC3Yv1onuAj18swyO45WVlQRBuN1uYi85nU6SJAmCsNvtFEURBGGxWKxWK1hsyOFwADNo7/V6QcnhjMfjgT5Bxm63A+dWq9VisYBN1263g1qXywUysGEIn9DY4XAAnzabDQZss9lAwE6n8xt9wl5gv7AVhHBkwBACbAhdwQysOjJgAMFisbxZwDCAIwMGs0ZR1JvN2jEDhmZwpHDshzMw4CNnDW1m1r10YL+A0A7zhCUQPpyO/YRDb2bSicsvhARB6PV6tBza+QjShfRCEIRKpQr2stnTC2FzczPDMCzLMnvpcAaUB6s9bH+cknD7hP6PE8xxbKDD0KyO4wra7PcJ87D2lBnoMEwBnzK8w80vS8D744T5w8N5sxLoMEyzBvwHvC7bVAnIsyx7Fc4IWZYlSVKlUilRuqIEtFqt2+0Odu3i9EKIfiMMxhaVIwJXkgBLu8m2qJ3UPwCjG55UsyybkpLy8OHDtbW158+f37hxo6qqimXZzs7OycnJtbW1Fy9edHd3LywsfPrpp/X19SotFVmXRq/kPKFBHZ/A6YUwN698cc2EPojAEQRWjQvoc/UILO10Zz4QZ0SDyZVOqF0uV1xcnEwmo2maYZi2tjaLxaLX68vKykZGRurr62UymV6vb2lp6evrM5vNEfcb4fGPmMjyShI4vRA2NDT5fAH0QQQQgWtCwOtyFj+8aZhoBOMdnlQzDGM2m4eGhqRSqdlslkqlPp+voKCgtra2vr4+NTV1c3OzoKDAbrfrdLrc3NxtFY7OCK+koFzWQZ1eCNGl0cs69yhuRGCPAMv4GbeFYwIGwd9apVl+qz5gM3AsGwwPS7uL7/8C1g5Pqm022+u9NDs7Oz8/r1QqGYbRarW9vb2vX78Wi8Xj4+NFRUVSqVQmkwkEAoWaQEIIAaLMxRNAQnjxc4AiQAQulIDPuKLP/W/2CaEu4093Uv9Al/GnhsK/Z/3e/UH5SSVtWgMlh4WQ4zgMw5RKZSAQcDqdNP2rZwQ9Ho/D4aBpenNz0263ezyejY0Nu92OLo3uZ4vyF08ACeHFzwGKABG4CAJswEe03nUuNul53/UopHred/1WPU0odtL/2DFbuV8I8aZbDlmNe6MXhHmkEJ5oBEgIT4QLGYedABLCsCNGHSACEUnAhy0bCr5nG+HZJgr3B+i37DhkNVAITS33t/L+ZSPjf60l/Ll5Waquj7ISZMG9T2GTgTGV20O73LTbTbs9e5+9zG9K3Hu1+6o2lSS6NAoBoszFE0BCePFzgCJABM6ZAONnfS6yLcpnWDiyZ8dcLRBCn3FlJOZ7rUn3J/pHR5rrh2tF3c9+NFxXMlwjhA23lGR79/jg8MKmktxSki2vpfFJAsnArKR/Nj27dGRiNa+gtrC4QTq6lJlTVlHTPiNXbClJf4CBHvZnLmaJtf0RoPw1JHB6IWxubmZPkTiOA60PZ07h9VdNz8cn7OX6BAyHfDgTDgiwlzd2Dj0czryxT9jwfHzCXmC/oTMc47fOt9ZUj9TWjoLP2Ng6aOLeHqqKuVcc/aC6uA3W7s9U5JbUVvbVVksr82sz70ZppzpYlqUJhSb2Lbus2lj2E9uEcH/v1dXVT58+HRkZsVgslZWVGRkZDMNMTU09f/7cYrE8e/YsJiZma2uruLhYKpVOTU2FONIiIQwBB1WFi8DphbCsrAzDMIfDge0lm81mNBoxDKMoymw2YxiG4zhBEBiGmUwmq9UKzJxOJ8i43W6Q8Xg8B0pcLhcosdvtIGOxWEwmE4ZhJEniOI5hGHw15v4YYEPo/HAGBmy1Wg8HTJIkCNhms4GujxMwtIEQYMAEQcCALRZLMJ+H44RjgRBgwCRJQsIgYKPRCAOGDaHPw4QPB0xRFCAMFpY7q1kDhA/PmtFohOM6TsChZ+2UmxlEF3rWYAyHA4aoYRU0Duus7Q8YQsAbPxuO/q60tRnOcmFht2qs3rCjMhT/S35SgWWm+nDAYDr0gwWa2LeUGX+lrXgfbmaG9WlzzYf41oy+6gOdJBNswy6XCyzfGAgEEhISCgoKPv7447fffttoNLIsW1VV9erVK7FY3N7e/vr1a5FIJJVKZ2ZmQhzOkBCGgIOqwkXg9EKIHp8I19wgv4jAGxHwU5quJz+ojXo380mSSvhvwId1OPflree1Ue/WRr3bkPiIx+v6Rt+utS5zzfuHzVzLYtsof3/5wMBARkZGTk6O3+93OBw5OTkrKytpaWmxsbFbW1vx8fEvX77UarVJSUmxsbE2m21/2wN5JIQHgKCv50EACeF5UEZ9IALnRYBxU9bBtIJnL1h291FAS1+iV7t7BoY3f0FJ4li/z1D0Q8brOHY4QZ8mPOCBPfTcIbh2Cq/oAvvDZgf8ICE8AAR9PQ8CSAjPgzLqAxE4LwJWabah4PulRe2/6pBlLQMpxrJ3yI4nvy45+i6V8wrwG/pBQvgNgFB1OAggIQwHVeQTEbgQAj7D4mDyz3r5MTk5HTAATPS/qe4YjgnAkkjOICGM5Nm5mrGxLGs2m48/tiPfR4h+Izw+QGSJCISVgKU3QRDP83r9Pp8fdmQb4VM9L+HXCM+EXQj9/t+giXAWKLxzIMCyrMvlstvtx+8LCeHxWSFLROA8CTAuQs/7Ltn+SCT81fovsHfXSjtLB30RGzSLkEwYhZDjOPAmYnDDK/oXEcAwzGg0Wq3WQOAEF0yQEEbIwQKFgQjsJ8C4iOG0DwQZNSKhpKpqZH/VpcuHVwg5jtv/8mKURwTAO6xPtJ8gITwRLmSMCJySgE8/D5c6A65MJuv2thF+TKbdRxHc6z1dr9pcrq8tk33Krk/UfG1t7Z133uHz+Xq9/uHDh3V1dQzDyOXyuro6mqZzcnJ0Ot3GxsYXX3wxPDwc2nPYhTB096gWEfhGAkgIvxERMkAEzpCALus7Pp2c9Xt+5ZMJVBQ0rlU/Xqv5av3Vy/X6FwUFEo0G3xx+XSFq9/sv7HZQsVgskUhwHO/u7l5bW8vMzNzZ2WlpaSksLJyfn3/y5IlarRaJRDiOp6amhr4KhYTwDLcf5CosBI4UwqKiIqVSabFYlHsJx3GVSqVUKo1Go1arVSqVOp3OYDAolUqNRoPjODCzWq0g43A4gmVsNhuoIkkS+DSZTBqNRqlUGgwGnU6nVCq1Wq3RaFQqlSqViqIoYG+324P5hFXQGMdxtVqtVCoxDDsQsFqtJggCuILBwICdTueBXqANQRAHAtbr9TBgk8kEGkJoMCroHGZgFUVRwKfZbIYB7+zsKJXKnZ0d8BIctVpNkmSwgKFPmIGzAAM2Go2AsH4vgVkzm83AJ7SHUUFXMAMhwFmDARsMBhjw4VmDDaErmIHdQWLnv5mBWVOpVDAGGBWME2ZgFZy1N9jMFBvLE/F/nxsdX5BSWFw8UFw8ICrqTn3GV9Xe0sS+tZP2R3red2dT3h5L/vFUwvenRseVSiWcNa1We26bGY7jZrN5YWEhISGhsbFRpVJlZmbiOK7VaouLizmO4/P5arVaKBQ6nc74+PjQd6sgIQzLsRs5PUMCRwohumv0DAkjV1eMAOOx2WfKwaBY2oUtj5v1BoKwH/kB1zbdm32778XlOPfWgKw+Wz1YuZP6hzS+yXEcTWw75xv8lNqrnvRTGutwjt+isY3lk+2PL5bbyMjI6upqQkLC8PBwe3t7enq61+s9IIRNTU3Dw8N5eXmhn6lHQnixU4l6/2YCSAi/mRGyQAR+TcDjoXW9fG1bvM3mttncxhlx8t3n/dF/N9UgmhsZX1zUHPg0Ne2uRu2Q1eyk/TFLe9xbAyuzczhuc843GEt/7FGNm2s+cM43/No957fuhHiPPDQ7h4zD4RgcHDQYDH6/f3JyUqfT7Qq5263VajmOU6lUbrfb4/FIpVKLxRI6HiSEofmg2osngITw4ucARXB5CDTUDXc9/efOx/8grS2ZmlwfflWxvqKwjfB3Uv7Lb9Z52TccKITahG/bRvNcqx1ACHdPKydFVNdzS1+i37IrLVc4ISG8wpN7RYaGhPCKTCQaRvgJsH5vyf2f+3RyvOFT+1RJwGE2lv6YDfh2e2YZvPEmx/gDDjNtWoex7AohE3DIagjxvZ3UP9DE/RYQQmhwHTJICK/DLF/uMSIhvNzzh6I/FwKM10Gb1oEQchxnnxBqYt8y17zvWvn1+p8cZxD8rbnuI03sW+7NPhCURyGtycqhul+Yaz9k/T6a2PYoR9cWN3E81LsazmVA59oJEsJzxY06ewMCSAjfABpqct0IBOxGsi0KCqFXO23pT9bE/db+5V0CdqMu88+dCw1QCC0DqfFfRIPXJHV1zHZ1ybu65BUVUiSEIbaf/xSiDlUhAmEigIQwTGCR26tEwDnfoE34bctAasn9n8Nxka8fwTzI+C0aj3LUIPjbgB1jGb8m9i117LdcG72a2N9i/F7wEqVDrzY64OMKfkVnhFdwUq/YkJAQXrEJRcM5cwJut68jPUpSWZr45bOqSulv/LNHP+1uGy8gxPdYxm8dzgUviHDIqlj/3k+Jv2l8CXJOp3N5ednhcJSXl79+/drj8fT09ExOToKHJebn58FaMwMDAwxzNAowSCSEl2Cyr3mISAiv+QZw3YZvyPufNL7p3hoIOI71khbGY1vJ/dfxynS/P+D3H2sVX8Zr1+f+d23Cb9tGeACvQ1Zz6YSQZdmysrKMjIy5ubmRkRGappeXlxsaGhITEwmCWF9f/+ijj3AcT09Pb2pq0mg0ITYkJIQh4KCqiCBwpBBWVVVRFOXxeKi95HK5LBYLRVEOh8NqtVIUZbPZ7HY7RVEWi8XpdAIzaO/z+UDJ4YzX6wVVbrcbZJxOJ3But9ttNhtFUVar1eFwHDCDDU/k88iAXS4XcB7CJ+wF2sBWDofjcMCHIcCG0BXMwKojIUDCAILFYoFdw4bQ1eEMnAXY6jAEq9V6hgEfmDWLxQLHFSJgWLU/4BCbGRwOtD88dlgCncNWYDPDl3t30v9kOPGdnq/+oTfxg9lZxf4PRVFer9em36RI3OfzGRpvW6dKtUm/M5v5k8nJNegTjg5uuocJU7jJNCIkcRPwaZC9pggzDO9wBjqHAZ//ZgbH5fV6XS7X8vJyf3+/QCCYmJh4+vRpcnKyQqF4+PBhWloajuPNzc35+flqtbq8vFwqlY6MhFoWHAlhRBzrURAhCBwphE1NTYFAgGGYwF46nAHlwWpZlgVVITLn4xP2cmTAIcI7XAVdwcyRPmHtYQ+HS6AxzOz3CfOw9rCHwyXQ+HAGOjxycg+7OlxyPj5hL2cbsM9m1GZ8hzat56eX23Sb6pKfbbz4HfN0g8vlxSRZVQ/+w+/30xadfb7RY9ry7Mypsr6b8ShOlNdSVNCtUpkgDRje4cyRAcOGITKHXcGSI33C2hA+YRU0hplv9MkwTGlp6TvvvPODH/xgY2PD5XLl5ORUVlbKZLLKysrm5uZ33333L//yL9va2ng8Xnd39/r6b54YOXy0QUJ4mAkqiSwCRwohWmItsiYJRXNyAn5KfaBR0rPC/KR8kbC3pmb39IVxW0zV7zkXGjmOJVrvdj35QUGKkP84mv/oq8yHL4af/93rJ/88N7l0wMm1+mq328VisU6ne/ToUWNjI0VRSUlJQqGQpmmO416/fk3TdE1NTWZmJigJBgcJYTAyqDxSCCAhjJSZQHGEIMD4j1y3JVgLP6kkWu/YxvKhgXtrQJhTx9K/fufDXgUlibMOZXIss5P+J7qs7+yk/BdN7LfIjickYVtO+q5JrQgEQt0DAp2jTGgCYRdCi8VSWVl57969mJiY8fHx0O/CCB3rgVqXyzU0NBR6KVXQhKKonJycmzdvJiYmgvXoDriyWCzT09Mcx01OTrrd7pWVFbFYfBzPB/ygr+EggIQwHFSRzzMhsLvw5l5i3JbKB+/nx+eKRP3g09q6e0g5MrE+Z31KTN6zeP6TGGBcxG/KTy6srxk6YM94rPqcv/JbdZaB1IATt0+VUD0vwQuSTBXvBpz4AXv09c0IhFcIPR7PkydPJiYmbDab2WxOTU2Vy+Ucx/l8Pq1Wi2EYeE0rQRAURWk0Go9n968hlmXBy3S83t1XPlosFpIkDQYDwzDgvS04vjv98/Pz8fHxNpuNYRiTyaTVakFz8Eu+TqeD98ump6cPDQ2ZTKaZmZkHDx54vV6WZQmC0Gg0TqeTZdmhoSE+n09R1IsXLzY3NwmCUCgUXq/XYrEYDAa9Xg/0GyxtTlEUQRAsy7rdbo1GYzLtXpp/M/qo1XEIICE8DiVkcyEEsOJ/ok1ru69oMG8Io24RLbdhGJWVQV8Gy7gtwnu/tA5lWIcyLQOplr4k25hAl/FnjPuItaEJ8X1dxp/Bt0lA/yhzhgTCK4QzMzM5OTlQJ+x2O7jBLDU1VSQSpaWlNTY2+ny+W7du5eylpKQkhmE6OjrS0tJEIlFCQoLD4cjNzX327Flra+vMzMyzZ8+qq6s//fTT7e3t1tbWzz77bGNjo7OzMyEhobCw8Pnz5zabTSQSgZBGJZMAACAASURBVOvF8KJwVlbWxMSE3W73+/1KpdLv94+PjyckJJSXlz99+tRkMpWWlkZFRclksk8//RR0VFFRsbKycvPmzZKSkujo6J6eHp/Pl56ezufzU1JSPvvsM7fbnZSUVF5e/uLFi8nJyTOcEuTqAAEkhAeAoK+RQwAT/qO5/pcBm16X8Weip48pSRzjsTEeq1NeX1E+ECxOxmsXPvjUb9VzHKeJ+9ZO2h9pYt+y9CcfKYQ+44qe99fBXKHyMyEQXiEUi8VdXV0cx1EUFRMT8+jRo9bW1tnZ2ZSUlJmZmbGxsdu3b5Mkef/+fbfbTdN0dHQ0SZK3b98eGxubmZlJSEiQyWQCgQCcR+r1eovF4vV6W1tbe3p6NBoNj8dzOBz37t1zOBwsy9bX1w8ODpaWlo6Nje2nY7FYiouL79y58/TpU7lc7vV6Hz161NfXNzMzU1BQ0NLSsri4WFNTw3FcVlaW3W6fnZ0FQpienh4IBNRqdWZm5srKCo/HY1kW9Gi1Wu/evbu1tWU0Go+83Lo/AJQ/DQEkhKehh9qGiYBtlM/6vXjT566VdqzwB9ahjJqaUUoSp+f/jZ7319qk360o7w/WNeO1i6Juglpt0u85519pYr/lJ1VsYPcWD5TOn0B4hXBoaKikpARcC93a2pJIJHl5eV1dXQkJCV17SSKR2O326OhomqYDgcCzZ890Ot1Pf/rT9vZ2YGAwGPLz81dWVjiOUygUcXFxL1++vH//PnhAksfjWSyWR48egZO//v7+pqamsrKy2dlZiJJlWXCJlWVZrVb78OHD7e3tDz/8sKWlBXSxubkZTAgLCwtZlt3Z2UlPT5+cnGxsbARuExMTwcObKSkpN27c6O3thWe9sF+UOSsCSAjPiiTyc4YE9Dn/r7HsXw0F3/dTGn3OXwVs+pqaUZ9hCW+8qU34NiWJLSsb8nh8NvWCy0r5fP79Xe8XQp9hcfdUoeclS7v226D8cQiwLOvz7S6IwzCM3+8HJyoOh8Pv99v2kt/v9/l8brc7tLfwCqHVar1z547RaGRZlmGYnp4ePp+/uLiYkpJC07Tb7W5ra3M4HPuFkKKoe/fu4TjOMIxUKtXpdEAIA4HA8+fPV1dXGYaprKwEQpibm+tyuaKiogiCCAQCQqFwamrqgBB6PJ4vv/wS/B7p8Xji4uI0Gs3z5883NjbA6jsrKyuLi4vV1dXgjNBms8Ezwv1CuL29nZKS4vf7KYr6/PPPSZLs7u5mGEan092/f9/v/9qGHho6qj0RASSEJ8KFjM+BAG3eNNd+6FxsMdd+CLurqRnd/aPfsOjVznAcJ6muGuyVSepevU59kMfvhma7R+19Z4T7y1H+pASkUmlmZqbP58vKymptbTWZTI8ePaqpqVGr1Xl5eR9//PHS0lJiYmJSUlLod/OGVwg5jlMqlS9evHj06NGXX36ZkpJiNBppmhYKhXfu3Ll3755EIvH5fPuF0O12z8zMfP7551FRUTk5OW63Gwghy7I9PT03b96Mi4uLj48vLy+3WCw3btwYHBycn59/+PDhgwcPCgoKvF7vASEEt9XcuHHjo73U0tLCMMzm5uaXX34ZFRUVGxtrtVoxDPvFL34hl8srKyvj4uImJibApdH9QkjTdHl5+Zdffvny5UvwGyGPxwP9zszsbvcohYkAEsIwgUVu35iAe3vQWP5vB5oDIYSFtHEVK/x7beJva2LfKsyodC40sv7du/+QEEJEp8yQJFlSUsLn8y0WS29vb2dnp0wme/DgATjIOxyOqqoqDMOKi4ulUil4LiBYj2EXwmAdX7pyq9W6uLh7EcPhcMTExKBroec2g0cKYUlJiU6ns9vtur1ksVj0er1OpyMIAsMwnU5nMpnMZrNOpzMYDBRFATOHwwEyLpcrWAbaWK1WYANuWtbpdGazGfwkjGEYQRCg1mazgYzT6QzmE1ZBY4qiQMA4joOAjUYjCBj8Fg5cwWCOE7DFYgGtCIIwGAwgYJPJpNPpMAwjSRLUQmgwqsPOYVXogHEc1+l0er0esjppwHDWQMCmvXRg1k4UMIyEJEng/PCsfS3g2SptzSc6nQ5CcJg1qtQ/3ay5Qyy0HyAGZ01f9I969eaBzay6euTArJlffYKPFe9MNddGvVt2/4OajKxXZS2NdYN1gpL6/N0NWKfT7Q8YzlpYNzM4a3CDOemsgcjhZgZn7Y03MwgBEsZxHEAwGo0wYGgG1vYTCAQPHz587733nE6nTCbr7OwEDx0UFxevra319vaq1WokhGd8oAa3icbGxj569GhiYuKMvSN3wQkcKYRoZZngwFDNCQg4ZFVE613QgGj5kuM422ieqfpnG4l/Lk77qr9/6fAnEGCA5YFuDpwRwlqa2LZPFfv0C6bq96yD6ebaDzWx33LMVkIDlHkzAuApuLy8PJZlgRCCWxpfvnxJUVRpaSm9l5KSkhISEqxWa4he0BlhCDgHq8DKePDxxIPV6Ht4CCAhDA/Xa+3V0p8Mft6zjeYZy/8N3KhCNN+22dyv4z4eaJOI4lN00x2q2N8yN33BMCz8TExsejz0iYQQgPZbdT7dHN58y1T1H3jT50gIz2r7Axfn2L3EcRxYpRacGoIumL0UujskhKH5oNqLJ4CE8OLn4IpFwDLm2p9jRf9grv1QG/9/7Ux39fKfD4vFPRl3xeKZpconHlyN1XzkUU/gTbcw0f+2jfAhgOGm+jcTwl97YDkmwHgdHtXXHvH6dS36/2IIICG8GO6o1+MTQEJ4fFbI8jgE2IDPUPB9NkBjhT+wT5dNTGwYp1u2Xv62Vvivat73fOat3fOJX72llmX9XutwDlg+xm/Rjj7/n3kPo/Kfx5eWDh7+HKd3ZBOBBJAQRuCkoJC+RgAJ4ddwoC+nIsD69Asr1U8n6/MXFzVTDcLFBdWrVxO2rXFz7c992LLfquPYr7/blgloE39Hm/h/O+dfaZN/31Txf3RZfxFwmE4VBWocYQSQEEbYhKBwDhFAQngICSp4EwLk60fuzX597n8vun8Dm2mzWl3ww7Ic47EFcxpwmOyTQk3ct6zS7N0Lm8Etg3lA5RFOILxCCB4/BzfXon8RAfBIg91uP9HDJ0gII/wgEsnheTVTyuVlhcKoUBiHsr/IjC0qSC3Oiv3Ny4+OH7wm7lscg9bNOD6wy2QZXiEkSRLdY3mZNodzidXj8djt9uN3hYTw+KyQ5QECHoU048t7i7x/12uxlZLbXi/NsQzjCXUn/QEP8CtW9EOO+fpVU1iHMhdBYHV19c6dOxKJRCwW//SnP33nnXfW1taio6OFQqHX683Ozk5PT6dpuqioKCEhASy0GSzMMAoheMgjWMeo/DoTMJvNxx8+EsLjs0KWBwhgxf+cc+e2If975toPjaU/PlCLvl5qAiRJbmxsgFcj6PX6jo4Oh8Oh1WoTEhLW1tZqamoaGxunp6fz8vIkEglYsDrYeJEQBiODysNIwGQ6wb0GRwphUVGRSqWyWq2qvUQQhFqtVqlU4E2WKpVKr9cbDAaVSqXRaHAcB2Y2mw1kHA4HyDidzgMl0IYkSVBlNps1Go1KpQILf6hUqp2dHZPJpFKp1Gq1xWIBZna7/YBP6BxWQWMcx2HAOzs7KpUKrP8CAgbv3VSpVDCYYwYMfILXc4KA9Xq9SqXSarVmsxmEB6HBqGCcMAOrKIoCrXAcBxAwDDsQsFqthqyOEzAMAM4aDBjO2pEBh4AAA4aR7M6aWq3N+E5+coGmJVqV/h3t9qrRaASzBscFG4ZwDmcNBnzOm5lKpYIxwIDhZMEMrIKjC8dmBiHAWQMvbT3+ZgZRHw4Y7mv7NzM4a3BybTYbeCvt+vp6Tk6Ox+MRi8WgBMMwHo8nlUrb9lJnZ2dZWZlUKh0d3V0JNlhCQhiMDCoPI4HTCyFaWSaM03P5XbO0q1jUXypoLHoRX1TY6zOuGMt+cvmHhUbwNQJjY2NKpTIhIcFisRQWFgYCgfX19fn5eR6PNzs7W1hYKBQK1Wp1enp6bW3tzs7O1xp//QsSwq/zQN/OhQASwnPBfH07cS61lAq7dlL+H/f61177cH2JXMWR22w2sVis1WppmlYoFOB9f729vXK5HCy6BhbaXl5eHhsbC32DHhLCq7iBRPyYkBBG/BRd7gAdc7WFcWnahG8HnMTlHgmK/lwIICE8F8yok68TQEL4dR7o2xkT0CZ8O+/uZ5rYtwIO4xm7Ru6uIgEkhFdxViN+TEgII36KIjRAY8m/sH4Px3Hujd79IbK02z4p9GqmQSHZ/lgQdW9XCF3ojHA/J5Q/mgASwqO5oNKwEkBCGFa8V9i5Nvn3NXHfCtgxvPmL/cN0yOs0sd8yVb/HcRxtWiNfPxRE3UOng/sRoXwIAhcghCzL8vn84eFhlUr1ve99b2tra3BwMD//iLUelpeXMzIywEs0cnNz3+AtgF6v9/bt2yEepXS5XBaLJQQgVBUOAkgIw0H1avukiW3HXI1B8Le28UIftmSu+wiO16MYMVX+1LXcRnZGm6rfs8+UO+X1gqh7jPcE6zZAbyhzDQlcgBByHNfX11dYWPj69et33nnn9evXPB5vdHTUaDRKJBK1Ws0wzMzMzNTU1NjYWFpamlar3djYWF5eNplMCoViYWFhYGDA6XT6fD6pVDo3N7e8vAzuCMIwTC6XDw0NbWxsDAwM6HS6QCAwPj5O0/TU1NTcXgoEAnNzc06nc319XafTPX78WCgU2my2wcHB1dVVlmXX19clEglBoCsqYdwdkBCGEe5VdE0T2wN1VXl3Pysr7i7h1+U/uC2493nhs+cVFdKy4m7e3S8Lo25NTm6O9Y50PP7Hjq/+aWJ8rSAug6V3L6KidFUJ2Gy2trY2g8Hgcrk6OzuVSmUgEBgZGVleXmYYZmRkZGpqiuO45eXl0dHRSLxrVKVSPXnyJCYmpru7Oy4uLioqSqFQ3Lt3D8OwmJgYlUp18+bNlZWVhYWFO3fu3L9/X6fT5eTkjI+Pl5eXC4XCV69eNTQ0NDU11dfXNzU1xcfHg4XcBgYGnjx5MjY2Bprfv3/f4/HcunXLbrd/9NFHm5uboIsnT55otdrc3NzJycn09HSpVJqWljY1NZWSkrK0tHTjxg2pVFpXV4cWhwvf/oOEMHxsL7XngMNkrvkADkGrJWQypUymHKniF9z9BKu/yfq9HBPQZf5X93rPTuofelRjDlm1JuG3DU33vV7a66Uty736+i88bg9No+XQIMirmZmcnFQoFImJiXNzcxsbG3FxcXNzcy0tLVlZWVtbWxMTEzweT6PRpKWlvXr1SqvVhqBwMWeEDofjvffe+/jjj81m8yeffHLz5s3Nzc379++zLJufnz88PHzv3j0cx5eWlt5+++1f/OIXJElCIezs7BwaGioqKkpJSVlcXJyfn09OToZCWFRUtLW1FRMTYzKZ7ty5A4Xwiy++sNlsT58+VavVT5480Wg02dnZU1NTWVlZ4+Pjn3/++YMHDx4+fDg/P19SUvLzn/8cLNsTAhyqOg2B0wthTU2N1Wr1er3WveR2u202m9VqdTqddrvdarU69pLVarXZbG63G5hBe5/PB0pomj6QgVUejwdUuVwu6NzhcFitVrvd7nK5QC00gw2P4/PIgJ1O5/EDht3BQcFhwoAhhP0BQ3vo4c0CttvtMOATQYABAAhG8SOXy2W32+24nlob3OH9jY00O4zbeMPNqoLaldS/UZd/pKh7sNnJhwHjA1lWC0WsDmmTf08T+5Z5shJWwUggBLhJnFXA4d7MwjprDocDzhrcYCA9mIGbBCzZP2sH9oszDPj4s+Z2uzmOKy8vLykpCQQCYrE4Ozt7aGhodnZWJBIpFIqNjY0HDx6srq6Wl5dLpdKRkZEQh6yLEUK/3//48eOkpKRAIPDo0aMXL154PJ6XL18ODg7Gx8ebzWYohCkpKWKxuLq6Ojs7G5wRQiEcGhrKzs4uLi7ef0YoFApDC6FWq83MzBSLxXfv3p2enq6tra2oqCgrK6uvr09NTQV/X3R3dz9//pym6RDgUNVpCJxeCBsbG2maZhiG3kuBQABk/H4/zMA8rIX2x8nAVjDj30s0TcMMTdOw9qJ8wn5hJDDzxnEex+dZOdek/CHtpLx23LE5pE76fUPB942NX1hnqjWxb4kefOJ32zSxbxEdT/dPNwjPY1YQzV+YKv/duSU9z4DBBnA+mxmcSpiBIw2RgcYwAycLZk666cLuoE+YCavPYM4DgYDRaPT5fMnJySqVyu125+bmdnR0gDtOVCoVSZLd3d1tbW18Pr+np2dtbS3EIetihJDjOPBnNcjYbLtvAvN4PAaDwel0sixLkmQgEAB/jNA0TVEU+PPf4XC4XC7w+gKz2bywsDA8PCwUCsH1X7fbbbfbgX0gECAIAiz8zTAMQRAMw1AUFQgE3G630WgkSdLr9Xo8HgzDaJo2Go0URXEcZ7fb9Xq9y+UKQQ1VnZLA6YUQLbF2yimInObapN9lPDZDwfet0ixt0u+517o1sW855uoM+X9XVVDLcZzforFPioIFvPvIPHopRDA6V7p8a2vrzp07PT09Wq324cOHDQ0NDocjOTm5oqLC5XKl7CWPx1NRUZGamurz+ULAuDAhDBHTMavARc74+PjQi8gd0xsyO08CSAjPk3aE9wWEUM//H9qEb3sUw2zAhzd8Yh3KdC621NePRXjwKLyrQeASC+HVmIDrOQokhNdz3g+M2jKQGnCYtEm/iwl/SLQ98BlXwMPyfuuOJvYtJIQHcKGv4SOAhDB8bJHnoASQEAZFc20q/JRGkfynK2n/a+nFHy/G/AG+oyFJB/jgBmw164e68cby8qFrwwMN9CIJICG8SPrXtm8khNd26uHA7ZOiwZ4JmUw59bqh7+k/yCbm5ufVBz4LC2pojzKIQPgIXIwQsixrsVg0Go0apStKQKfTeTxBH2dGQhi+XfpSeGYDtH1SNDS45PczfuuORzV+KcJGQV5VAhcjhCRJKhQK8DZqA0pXkYBOp9va2gp2pxYSwqt6QDnWuFiG6o4xlv4rEMJjNUFGiMAhAhqNJj4+fmpqym635+bmDg0NzczMgDVYdnZ2uru7BQKB3++XSCSVlZWBQKgFFi5GCBUKBY7jFEpXmoBer7darYe23t0CJIRHYrnahYzPQZs3OI6TtddWPHiv4sF7ubkdfj9ztUeNRhc+AouLiy6XKzExsbu7WyqVxsTEOJ1Oj8dTWVmp1WobGhqUSuX29nZmZmZbWxt4c2+wYC5GCLe2tkiSvNIqgAZHGY3GYAuan14Iy8rKMAxzOp3YXrLZbEajEcMwiqLMZjOGYQRBkCSJYZjJZLJarcAM2rvdblACHiTFMAyWuFwuUGW324FPi8ViMpkwDCNJEsdxDMPMZrPFYsEwzGg0OhwOYA8bQp8wA51DY6vVeiBgHMdhwDab7YBP6OGwT9gvhAADJvbS/oD3QzvsEzqHPiEEq9V6AAL4WxZAsNvt3xiwi9Di4gcYhpWX96tG63Qtj/cHDGeNIAgQ8Cln7fQBQz5w1mDAkb+Zga0rMjczCPY0mxn4I3tnZ6e+vn5hYeH58+f5+fler3dqampxcVEulz99+vThw4cymayiomJ4LwVTQY7jkBAixQoXgbAKIXqgPsReHTlV7m0pCMa18lrP/xtt0u/4DIsl93++W8iykRMniuQyElCpVB0dHYFAAJz85eTk6HQ6kUjk8Xg0Gk1dXV1XV1d7e3tOTk57e/v29naIMSIhDJcMIL9ICEPseNeiivGbqt9jaTfRetdY+mNj2TvKl/+5t7I4+fajazF8NMgwEygvL//000/j4uLMZnNaWlpvb6/P5xsZGWH3klgszs3N9fv9nZ2dYD3SEOFEkBASBDE2NjY+Pk4QBFKRK0AACWGIHe86VHkUw5q4bzlmyrGif1iI+ZPcnPayEslo+gfkSMF1GD4a4yUiEEFC2NvbOzQ01NvbOzIycgVkAA0BCeElOhCEI1TP9hAmelvP/x/63P+mnepcXt59Dw7r97IBtJx9OHgjn29OIIKE0GQyqdXq8vLyhYUFpCJXgAASwjffLy9fS9a9NWAdytgfuG0s373Rq036Xa960mwkgRDuN0B5RCBCCESQEIIbsWQyWW1tLbqnFAkh3ENYlj1wlymO4+hmGcgnEjJ+QqGJfcvSG/+bYFhmJ/1P/Fadnv83PuOK2WxDQvgbOCgXYQQiSAjb2tq295JIJEI/EyIhhHsKEkKIIkIzLNNSWluQViqIzxWJ+sEnJ6djK+UvAk4cCWGEzhoKax+BCBJCtVqdn59fUFCgVCqvgAygIaBLo/t2tJNkWYY2rp6kwQXbsrSr+P4vOY6z9CbAUORylariBsdx5rqPaEKBzgghGZQ5KwJut3ttbQ28RzYQCJjNZo7jGIYxmUwMw6jVap1OB5bv0Gg04J21wbqOICFEynHFCCAhDLbXhS5nvHZtwrdD20RULRBC1u/R8/464Nw7GHkd8jkFEEIQKhLCiJqyqxGMRCIZGRmJj4/3eDzDw8PPnj1jGGZ5efmLL77Y2trKzMwsLS3d2tpKTk4uLCw88PPKAQJICK+Y+kTQcMIqhA0NDT6fLxAI+PaS3++HGZqmfT4fvZdABtZCe4ZhgP3hDLSBGb/ff0qfsJf9Pg8HDOL02gltwrdpl3X/AKGHwxnoE2bOO2Cntfj+L30+n7knAW//yufzYUU/HMz8TFF+w+f1gID1emJpSQuGDOOEmXMO+JhgIer9cR6eNbhtXK7NbD8EOEA45MMZaAMzFztrfr+f4zin0ykQCPR6fUNDQ1ZWltVqbWhoSE9PX15eLikpaWhoqKqqKi0tlUql4+OhFnZHQhhBynHFQgmrEFZXV1ssFo/HY9lLLpfLarVaLBan02mz2SwWi91udzgcFovFarW6XC5g5vV6Qcbn8wXLQBu32w1snE4ncO5wOOx2u8VisdlsTqcT1MIYQviEVdAYBuxwOA4ETJl2X0uLdcZRJp3HuTsoi8Xi8/3/7Z2JVxtXnu/nL3FmupOenjkz884srydnku4+/XrSPWdOd89LOum8l+c4mZ5kOu12nBAbjJfEZjHG2MYGjNnBMqtYLUBgwGAMttksYTCrEYWqSltt2kp7SVXvwO250UhCZhFIwL1Hx/npLr/7u59bVd+oqLrXa2Zpi5mDrqARJWD7WtqhgG02GyDM6ZYqTnwC4sSu/UA3VEFkfa/vzM9eTDwiSSPH2UjSOD2tmZ7GQZ2IAUMIgPD2Zy2ccPCswcmFwUCe4Ub4rO2Dw8xqtW4KAgQFW8HzYsuHWbjPiLMGT2TYtcfjcTqdDoejsbGRZdmampr333//pz/9qUwme/fdd998882pqamhoaGamprOzs6SkpKBgYFnz56F/AoM/oqEcJ+pTwINx2g07txao/v4qdG1W6Ov4umH9AU/NJb/wva0fu31O69zvkuwkMFnbyLYjkk515FSfTUPBENkfY/I/A7bdnyx7KMnj+dGRhbhx2JxJELAKIZ9Q+Dq1asff/xxZmam1+sFPw0DgYDP5yssLGRZNi0tLScnx+FwXLt2DazHHWXg8RFCnU5H03QCXbNRKDtAgCRJhyPytS/6/fqQ4/WgPTXKq2rt41V4xivgczf17fq6Idml7IpTR2+nfSNvGJbLn4BPW9t4CKtd/yqybV9QtUfk9UOga59pjutAK6jt+jygDrdHID5C6PV6cRxfRmlfEzCZTOs9qYWEMMppyylPrz6B2Z/txh55deqhh7NY2p8xTZ+xbV+6Vx7j6Yd89CKvqvUaZypyK6P42YUi0/286pOHm4rKsrPvwu5cL+5DGxmIwJ4gEB8h3BNoUJA7RwAJYRS2QAhdSw9AnaGhOSztzwzFP2Oafi9JkodUWXozdDdetz0pLkg+1dPzbIMfkyny3pBRIoleFHBZ5/N+0Xv6Lcezpug1USkikOAEkBAm+ATtz/CQEEaZV64zNXiLIiCEjmeNdP3Hq38s9Ln0BT/E0w+Rl/9Sl/+mNv0V20i5Nv0VNz4OFt2P+K/Z7FCplqN0uvEix6ScbvitJEkCu7x0+7NJNSZJaEOljfNDNRORABLCRJyVfR8TEsLwKWbvJq09FOO2DOQElw4NzVGKUx7iacDDg3xeVee3G330YsBt09/8EZ7xp8ayfw1+mT24ObAtlpgJoS73H/QFbwbcVl5VZ1Ddm5xcCe8O5SACe4sAEsK9NV/7JFokhOETSTf8VrDgvKqWV9UElw4NzQmCPzgn2OafVrOtx53z3TsthIKF8OBjkiQxLcf0+W/46AVjxa+QEAbPBbL3LgEkhHt37vZw5EgIQyZv9bdd/ptE1mt4+iHnjCK4NLoQwpq0/BOvaRZ+DTG2/4vQ3JPONP1OkiS29fiVrIbi9CtF32RUlvdhGBXSF/qKCOwOgaGhoS+++KKkpESr1Z44caKqqmpxcTElJeX8+fPLy8tnz55NTk6mafrq1avnzp1zOp1RokJCGAUOKtopAkgIQ8h6DdN4+iG64bdUzQdbE0I8/RCR9ZqlL1MUPCHOV59B3fatUSLrVeLiq5aBK1T1/y0v7zeU/Nwx1RzeEcpBBHaNgMfjEQQhLy+vtbX1xYsXubm5DMMIglBbW7u8vOzz+Xp6egYGBhL3hfpdI4U6SkwC2xfC0tJSDMMsFgu2lhiGWVlZwTDMZDLhOI5hmE6n0+v1GIbhOE7TNKhmtVqBYbfbgcHzfIhhs9lADsdxwAA7ZWIYZjAYSJLEMIwgCJPJhGHYysqK2WwG1aL4hEWwMgzYaDQSBPGiu4AYadaTWs2sekWzwDAM8Gmz2Vpbh5aWNOFxwhwQ8NLUiO7GPxLZf6FRD1AUBSDo9XqdTodh2PT0fFfXCPAJocGooCtowCIAYfnFPJ753eXO7NXX/GcfFRZ2aZ5PEFrMaDRiGKbValmWhQEDA7qCBvQJZwFC2P1Zg5MLpxvGCQ0YMCQGAwazwV5oMwAAF9VJREFUFnyYabVaOGtwgNAD9AkN2C/LsuDQhYcZnDV4mIF9CADYKD5hETzMaJoGzmHAJEkaDIaNzxoMGA4KBgxnDQaM4zhFUVs+zDAMo2laq9UGn2skSYLDbGVlJXjWGIYJBAIPHz6cmppSKpUrKytACOfn53t6egKBgE6na2lp0el0ibvEWmJenVFUu0Zg+0K4n1aWCXh5fcEPPTp1RP4bvDW6uu6+kxPM2rX32UMf49zmL0KvfpJp+p0be2Qo/Imfp8rL+yOGijIRgd0k0NHR0dDQMDU1pVKp6urqcnNzVSpVYWHh6Ojo8vJydnb2o0ePGIbJyclJ0EW3dxMW6isBCSAhXNUtt81nmhPMuKnqnencXxErepJkwz8KxUSUh2XCJ5dp/E9JDITkb1MIeXW9wK0+HerBxwJODglhCF70NS4ESJKcnp5+8eKFIAjg/hDHcdPT0zMzMyzLTq8ll8tF0zRJkust7gEij8/fCEVRVKvVly5dys3NxTAsBKLH4wkEQs9kSZIwDDt79uzKyuoJKYpiX1/f+fPn29raIlYO8Qm+CoJQUFCwqTFH9IMyt0kACaEkSYbit/D0Q4aSn+tv/jgv/RaGUet9op/DIXNhHcoXuNBzartCqKoTBS/sCAkhRIGM/UFgU6LwJ5sasyiKLMtGbEIQRFpamsPhYFk2JSWF53mz2SyKItg9ID09nSAI0FAQBIZhbDab3++XyWQVFRV+/+qj5A6H47PPPuM4bm5uLhAIuFwuiqIcDofH47FarQzD8DzPMIzL5RJFEayjabPZfD5fcnKyyWRa3TKGpt1ud8TwUOZOE0BCKPqc5JW/sfRnE1mveXTqsqLOWDF3LfQwjauPdwanbQqhoeifkRAG80T2PiMQHyHs6empqVl9WSoQCKSkpDx//vzYsWMul+urr77SaDRHjhwZHR0VRdHv91dWVjY0NFy/fl2lUuXm5l66dAmolyAISUlJn3766czMjM/nu3nzZk1NTWpq6sDAwBdffFFXV3f06NHW1tYLFy54PJ4jR450d3efPXvWYDAkJyeTJJmXl9fY2Jidne1yufbZjO6J4RxwIRQFj328iutI8fOUh5iQJCm2v7EMhT+Bb9+D42GbQkjXHQm+3RrbaPfEEYuC3N8E4iOEAwMDFRUVkiT5/f6TJ0/OzMxAIaRp+ssvvwTb91it1k8//dRut4+Ojt64caOpqamlpQXOB8/zMpns17/+tdFoLC4urq2tPXz4cE9Pz9WrVwmCOHXqlNlsPnbsmMfjAc6LiooePnyYnJy8sLDw3nvvpaenf/jhh1qtFjpExq4ROOBCyE/I8PRDou/bGxKxlRZzb0bAyQXP5naE0L08tLrqW1CKbbRBjpGJCMSHQHyEkGXZ1NRUo9G4sLCQmppqt9uPHTtmMpmOHDnCsuypU6cYhpEkye12p6SkaDSa+vr69vb2YCG0Wq1yudzpdKampi4uLn7yySczMzNACPPz80OE8KOPPsJxPC0tbWFhITk5GcOwpKQkkiSbm5ujv2UZnzk5AL0ecCFk20/aR8qkwOoW2yDFVlpc8/fso+X/5Xv1vxYzv7W1Rt3YI6PsfZfmYfASprGNNjhOZCMCcSEQHyGUJImm6dra2ubmZp5fXUFxfHy8o6Ojq6vL7XaPjY11dXWBR2DMZnN9ff3g4KDf75+dnZ2bmwOYRFEcGRkpLy+fnp4OBAJDQ0PNzc0KhWJ+fn50dNRqtfb19blcLqVS6fF4jh49qlQqh4eHBUHo7e11OBw6nU4mk01PT8cFOur0IAuh6PeF/MCK+a1R1/w9/c0fBd0dFTWy321NCKnqD7Ivtba3Pw3+DA/Po2MYEUgEAjiO6/V6m82Wk5Mjk8nsdrtMJhseHg4EAlVVVVeuXHE4HMPDw62trdGfqYybEO4aRHhrdNd6RB29lMBBFkJJkszdX4cgivlvLLfmgd9uhL1o7vx+s0Jovnfeg4/h6YfkDY+gH2QgAolDwGAwHD9+/MmTJyqVanR0VJKk/v7+4eFhmUw2OztbVla2tqaS5dq1awqFArxusF7w+18IwbsW640f5ceFwPaFUCaTURTldDppmqYoym63A8NqtbIsS1EUx3Fms5miKIZh7HY7tZacTicw3G73egZ4ApmiKJ7ngU+bzcYwDEVRZrOZ4ziKoliWtVqtFEXRNO1wOIAr2DDcOSxyOBw0TetbT8KALRYLy7KFhUqO4ywWS0jAsGG4T5gD68CAV2N72kJp1DDg+bL/6L8/AeKEEGBD6AoYlrn7DoagZL+hag4ri3Orqu5TFAUhgIABYRAwTdM8z78UAuwFBgAhgCe9AWE4azabLSRg6CHcgGOBEIID3tqswV7ArO25wyw44PBZCz4vID045HBjI7PGsmwMZw2eyBEPM7vdLklSb2/v+Pj45ORkdnZ2RkbG06dPs7KyLl++3Nvbe+XKlS+//FKtVt+5c2doLUW51h0IIYwyflQUFwLbF8LW1lbwdl3w365eaoP/KwpuGCXnpd5AhSgeIhbx6nqu61yI8/Ly/pCcLTgP9uA1zpp7M0UxADI1st8/fbq8QZ/6uk8Vp/+34tSvFKd+1dw8Gvijj2D369oRh7xev+t6+e8Fm/IJK/93H6HfYLVNGaFe1vked58wgHUCDM2G9TdihDZe5/tGXIXXWcdZaDZoCIWQIAie52/cuPH8+XODwVBaWjozM6PX65VKZVdXV15enlKpXFpainKtQ0IYBQ4q2ikC2xfCRF5izUM+DQcnCm4i6zUi6zXDrf/lmJSHVIj5rdHV/ZKaPpMCf9y/aeO3RkWvc6noXeU3/8fn8dpme/3+CEtbhASPviIC8SIwPT2t0Whomj5//nx3d7fdbr9y5Upvb6/X6y1cS36/X6FQFBcXgxfQ14szbkLo8XgsKO1fAmANhPUOu30shB5Sbap6J3gLCL/dNJ79b+qJxd7Tb/Wefks1saBWr4R8Cgvvrcdqy/m8up5/Wh3w2L2GaaL+2K3M/KqqB/DT2Pgk2LPD4VarVyaGRkfuyttP/XL08UxwKbIRgf1NID5CaLfbl5aWcJT2L4GVlRWNRiMI374hEHwi7Ush9NsMq7u3579BXPxu8IMqLs2DW0m/X8z8HzzvXu/jcn27gFkwqO3YHu0onn7I0n+ZyHpVn/9PIY+qVhc3SuK3a3MvLRknCn5r0c4uXPjzFzn/tKnVTbcTJGqLCCQCgfgIIYZh8A/jYP0z9O8+I8BxHEmSNpst4lG+t4Qw4GR91EL4QHzMUrDg8ep620gJ0/ifjud3nXNKr/E5aELX/3tZxmW/3RTuYUdzPNpR8vJfEtnfJ7K+515+yHUkB68OU3riM931/wnfu58fGVZf+IH14XU8/ZBjunVHA0POEYFEIxAfIVxaWgIP9e2zqz8aTjABk8kEVggKP+j3lhBa7l8y3X6PvZvko1+IPpfoW93qWgwIdO0RS99FMDq/gxnP/uXsvVp1WdLCUPfIuddHL/x46dkkhlHPZGeLi3vDIex0jlf/zFT1jrH8l27N4OryvM8aDbd+CjoVrLrrSV+NnHt9qjYdrPTdkfEJNtyKpx8y3X5P9KF1B3d6cpD/xCKAhDD40o3sWBLY60IYcHLgT31s2xdkzl/pbrxOXPpz/c0f6W/+yKt/5newdP+Ny8dPFWUVFmUVFn6dWVvavDzSQ2r1Oh2HjT+Y+PofwEed/S8GgzkO533AL1hJy/0sSVx9ZCbg5Iis74EwWMVXT7/5AYlTMzVndDpurjFrqvAjn8vBKc8AmY9DtKhLRCB+BJAQxvLSj3wFE9jrQmgfLTeU/JxX1zEtfzDc+olzTklkf1+X9zqefsitGfQ7WG5cfjftU/LK35A5f01e/VvLwGV4Int1k1Tth+zdJEPxW/zTapgfRyPgseuu/d3aT8MmIvv7XOdpSRR1N14XvQ59/htMyx/iGBvqGhHYGgGXy+XxeMAWQ4FAwO12a7Vaz1rSarVut1sQBBzHX7rRUMIJIXiFNvh6uh2b4zidTrcdD6jtlgnsdSEcf/Co+JuMWyeTyi4XVd5qrSpVll6+VVnUVnjieNm1yvLrd0qvVT1+vGh7UmIbLvDb9MHPnsCz2nT7XQ8+Br/G1+A6U6ma/2cbLrD0ZYK/F1oHr7k0D+j6j+MbGOodEdgCAZ7nk5KSnjx5Mjk5+c4779hstqqqKoVC0dfXV1ZWJpfLS0pKlEplfX19RUVF9E09E04Ih4eHBwYGGIYxGo06nY5lWXAh5jjOYDDodDpuLenWEsuyDMOYTCadTkfTNPiX4zij0UiSJE3TRqMxPz8/uO2WL+uoYXQCDMOQa8loNIKaOyqELS0tgiAEAgFhLUHDv5YEQYBGxGqiKIKG4QZwxc8q71792uv1UYpkv98PKvv9fpdhxjJ+x2WYZbvP26buvtS5k1BFrBPzgIN7CQ4Y2IAGozipzfyuoeifITT79F1+4g4l/ySEBgwv3IBgoRHcNawfDhbmwDrQgK6CDVgKDegh3IB1oLEeBDj2ECPcJ8yBPqERHCfsCJZCA3oIN2AdaEA/W3YOXYUbW/YJI4/oEzDcsvNwnzDnpT4DgYDNZlMoFGNjYziOp6amUhSVk5MDNlfo7u4+duwYUESe5y9evJiI7xFGeVgGCOHDhw8LCwvr6uqUSiW4qi4uLpaXlzc0NAyupaampoqKiq6uroGBgbKyMplMdvPmzaampoaGhsXFxYyMjLa2tsrKSr1en5+fr1Kp6urq5HL5wMBA9Ks5Kt0ygYWFhcOHD7/33nttbW3AyY4KYXV1NcuyLpeLXUs8zwPDZrOZzWaWZS0WC1hujeM4WArrezweUD/ccLvdLMsaui82pbxL0wzLsna7neM4sKwaWKrKbDbb7Xbgwel0AgM0ZFl2PZ8sy8LKMKSIAYM9q1mWjeIT9gLrwFbrBWxdeED1ZhMXv8syq+Nyu92mcTmR9arbYgihAX0GBwwgBAdss9lYluU4DnYNG8Lwwg04C7CVzWYDzrc5ayzLQp8RIYCAgyciSsCwCAYcfdZgKawfPnaYA51HDzhxDjM4qA0GDOvDkcKxQwMWRTnMzGYznDXYtdvtBrs1gCXWfD7f6dOnTSZTenq6yWS6upZ4ns/KyiorK7NardnZ2XtSCAcHB4eHh7VabWlpKfhROD8/n5OT8+DBA5qmWZZVqVSVlZXV1dX9/f1PnjxZXFxsbW01Go2VlZXz8/PNzc1ms7m6unpmZiY/P7+4uLiwsPDWrVs5OTkMw2z5Wo8aRidQUFBw9OhReC96R4Vwp1eWoao/6KwoCwS+fdNuC7duErOJbbhAkr4dl2uxz+9Y3fUMJURgzxHo6+sbHx8XBOHMmTN2u72xsTElJaW7u7uxsfHcuXNyuXxiYiIlJaWtrW1P3hoNF0Kz2WwwGDo7O0tKShoaGnp7e8fGxmpra6EQdnZ2QiFsaWkBQjg3N5efn19ZWUmSZPSLOCrdPoH5+fnOzk7oZ08LoaX/8v370/tSCPfcxQ4FjAjsNIEE/RthuBDOzc2VlJRUV1crlUqFQlFdXV1eXl5aWhpRCNPS0urr6xsaGgwGQ35+vlqtLioqqqmp6erqQu8vQqHaaWNHhbA+98TOnRtTyhrFrRuFhfeQEO4cZOQZEUgcAgknhCFX52DdAo/JgArADi6F+YuLi3V1dbAIGMFtQ7pAX3eIwI4K4fF3f3Enr6K+/nHIp7DwntW6+sL71pLo95pu/7rqxL87F3qj30vZmn/UChFABBKQQKIL4Rau0TiODw0NbaEhahJbAjsqhK3yGlbxFT8pJzK/4yFV8NR6/pywWLYohM/Vc+2n324//XZeXid0iAxEABHY9wT2oRDG9mqOvG2ZwI4KYVtbGz8pZ1o/d0y3mO9dgCfqdoTw9u1Bn88PPtAhMhABRGDfE0BCuOXrPGr4EgI7LYTw5Ny+ELpXnngN0yXnM6BPZCACiMDBIRAfIcRxHL3G8BIZ2fvFOp3ObrdHPJdiu+h2uBB6DdM+JtqG1DAqMSB49c8MxW+R2X9R/PW3vyxhBWQgAohAYhKorq7+4IMPfvOb3zidToIgrl+/7vf7x8bGqqurvV7vpUuXMjIyfD7fRoKPjxC6XC6tVqvX6w0o7VMCJEkSBBEIRN7fPLZCuLoV+3+9GKd+MGCxOD06NXXn/Y2cAB5SNXHhjdyUCzfPppcVd22kCaqDCCACCUJgdnZ2ZGTE4/FUVlZmZ2dbrValUllaWophmFwub21t1Wg0Gwk1PkIoSZLf7wdLo6J/9yUBr9e7ngpKkrR9IQTHusViwTAMT38FbAqx3H5xJP1nN9NulFyvvZWZX3aro/jq7fLy/vBPXl7XwsIShmGO5cej5/5RVXHSalrB1pLNZgMGx3HAoChKq9ViGGYwGEiSxDCMIAiTyYRh2MrKitlsBtXsdjsweJ4PMWARrEzT9MrKao9Go5EgCAzDSJI0GAwYhmm1WoZhgAer1RriKtw5rMOyLPBpMplwHMcwTK/X63S6VUQ4TlEUcAWgYRgGowr3CYsgBJqmIQQYsNFoBBBYlgXOIb0oPmHADMOEBKzT6fR6PQiYpukQCDCqcOewXxhwxFmDAcNqsGG4T9gdJAYDhrMGA444a9BDuHPYL0QHA4azBg8zDMPgkRPFJyyClaMfZrBrGEx4nDAHzloMDzPYL5yO4MMMnGskSUacNYZhRFGsra11u939/f01NTUpKSngp2FFRcWLFy8UCkV7e/vU1FRCC+FGgkN19iuB7Qth8MoyPtOcdTCXzPkrQ/HPuM5UY/kvDYU/cc51OZ630fJPAp4It2fHxzVgU3gPPjZx5W2CYPcrajQuRGC/EuB5HqymTVHUyMjImTNnXC4XQRAVFRVms7mgoODmzZvrbYkawiRuvwhD4kBfDxSB2AqhJEnO2Q5z7x8fdQl47D5q3sdodLl/r7v2d8757nC24+Map80iiX4PPrakGkNCGI4I5SACCU5AEASG+ePqgH6/32AwSJLk8XjA5QXcbNjgEJAQbhAUqhZLAjEXwojB+R2Mj1qgag6Hl46Pa7jJDq7zdOWtllv5Cr0+HhvnhoeFchABRCAeBJAQxoP6ge9zd4QQYGZa/sC2fh6CXDU2V3a1vPjUiaICRUgR+ooIIAIHjQASwoM24wkx3t0VwmNE1muuF/3BIzdW/JtzttO19GB1Q12UEAFE4GATQEJ4sOc/TqPfTSGUJIlX1+EZr/ioOffKk7V95EW2/aQkSYKVDHgdcWKAukUEEIFEIYCEMFFm4kDFsctCKEmSKLhNlW/j6Ye4jlNE5neYlmMHCjgaLCKACEQhgIQwChxUtFMEdl8IJVHE0w+5FvvYu0lE5ncCbutOjQ35RQQQgV0hYDabq6qqtFqtJEksywJDEISxsbFAIDA4OHj//v0NBoKEcIOgULVYEoiDEK7+Klxd5gbP+FPBQsRyMMgXIoAIxIOAWq02GAyZmZk0TZ87d661tVWSpMHBwc8//5wkyfLycplMtsFLDRLCeEzgge9zg0cn4CSKYkh9hmFSU1PlW0pFH74ib6jbUlPUCBFABBKFwPj4uCRJ9fX15eXlgiCoVKquri6j0djV1XX9+vW5ubmOjo729na1Wr2Ryy0Swo1QQnViTCBE2KJ7DxdCURTdKCECiMABJuDz+bRardvtvnTpEs/zQAgfP3585MiRN954o7e3t7q6uqGhgSTJ6JcXUIqEcCOUUJ0YE9imEMY4GuQOEUAE9iABgiCSk5MfPXokiuLy8rJKtbpBtyAI7e3tgiDcvn27rKxMFMWNjAwJ4UYooToxJoCEMMZAkTtEABHYBgEkhNuAh5puiYDf72fZTSxyHX5rdEvdokaIACKACEQmsINCKEmSxWKx2+37cpshNKitEXC73RzHud3uyMdjpFwkhJGooDxEABGIGYGdFUK/3+90OnmUEIEgAh6PZ4M37sFhjoQwZqc7coQIIAKRCOysEEbqEeUhApsjgIRwc7xQbUQAEdgMgUAgYDZvYv+ZP9mMc1QXEYgZAY7jnE6ngBIigAggArEmwLKsy+Xa+NUKCeHGWaGasSTg9/vtdrsZJUQAEUAEYkrAYrE4nc5N/bEGCWEsL+7I12YJiCghAogAIhBrApu9ECEh3CwxVB8RQAQQAURgXxH4/7XzlGlKzoV1AAAADmVYSWZNTQAqAAAACAAAAAAAAADSU5MAAAAASUVORK5CYII=;" vertex="1" parent="1">
                    <mxGeometry x="20" y="238.5" width="600" height="373" as="geometry"/>
                </mxCell>
                <mxCell id="3" value="Her er så kan selekta indikatora for og kjøra test så dobbel klikke for selekta" style="whiteSpace=wrap;html=1;aspect=fixed;" vertex="1" parent="1">
                    <mxGeometry x="-80" y="360" width="130" height="130" as="geometry"/>
                </mxCell>
                <mxCell id="4" style="edgeStyle=none;html=1;exitX=0.5;exitY=1;exitDx=0;exitDy=0;" edge="1" parent="1" source="3" target="3">
                    <mxGeometry relative="1" as="geometry"/>
                </mxCell>
                <mxCell id="5" value="" style="whiteSpace=wrap;html=1;aspect=fixed;" vertex="1" parent="1">
                    <mxGeometry x="60" y="340" width="130" height="130" as="geometry"/>
                </mxCell>
                <mxCell id="6" value="" style="endArrow=none;dashed=1;html=1;" edge="1" parent="1">
                    <mxGeometry width="50" height="50" relative="1" as="geometry">
                        <mxPoint x="40" y="460" as="sourcePoint"/>
                        <mxPoint x="90" y="410" as="targetPoint"/>
                    </mxGeometry>
                </mxCell>
                <mxCell id="8" value="" style="endArrow=classic;html=1;" edge="1" parent="1">
                    <mxGeometry relative="1" as="geometry">
                        <mxPoint x="40" y="360" as="sourcePoint"/>
                        <mxPoint x="140" y="360" as="targetPoint"/>
                    </mxGeometry>
                </mxCell>
                <mxCell id="9" value="" style="shape=message;html=1;outlineConnect=0;" vertex="1" parent="8">
                    <mxGeometry width="20" height="14" relative="1" as="geometry">
                        <mxPoint x="-10" y="-7" as="offset"/>
                    </mxGeometry>
                </mxCell>
                <mxCell id="10" value="" style="endArrow=classic;html=1;" edge="1" parent="1">
                    <mxGeometry relative="1" as="geometry">
                        <mxPoint x="60" y="380" as="sourcePoint"/>
                        <mxPoint x="180" y="380" as="targetPoint"/>
                    </mxGeometry>
                </mxCell>
                <mxCell id="11" value="Label" style="edgeLabel;resizable=0;html=1;align=center;verticalAlign=middle;" connectable="0" vertex="1" parent="10">
                    <mxGeometry relative="1" as="geometry"/>
                </mxCell>
                <mxCell id="12" value="Source" style="edgeLabel;resizable=0;html=1;align=left;verticalAlign=bottom;" connectable="0" vertex="1" parent="10">
                    <mxGeometry x="-1" relative="1" as="geometry"/>
                </mxCell>
                <mxCell id="13" value="Target" style="edgeLabel;resizable=0;html=1;align=right;verticalAlign=bottom;" connectable="0" vertex="1" parent="10">
                    <mxGeometry x="1" relative="1" as="geometry"/>
                </mxCell>
                <mxCell id="14" value="" style="endArrow=classic;html=1;" edge="1" parent="1">
                    <mxGeometry relative="1" as="geometry">
                        <mxPoint x="60" y="400" as="sourcePoint"/>
                        <mxPoint x="180" y="400" as="targetPoint"/>
                    </mxGeometry>
                </mxCell>
                <mxCell id="15" value="Label" style="edgeLabel;resizable=0;html=1;align=center;verticalAlign=middle;" connectable="0" vertex="1" parent="14">
                    <mxGeometry relative="1" as="geometry"/>
                </mxCell>
                <mxCell id="16" value="Source" style="edgeLabel;resizable=0;html=1;align=left;verticalAlign=bottom;" connectable="0" vertex="1" parent="14">
                    <mxGeometry x="-1" relative="1" as="geometry"/>
                </mxCell>
                <mxCell id="17" value="Target" style="edgeLabel;resizable=0;html=1;align=right;verticalAlign=bottom;" connectable="0" vertex="1" parent="14">
                    <mxGeometry x="1" relative="1" as="geometry"/>
                </mxCell>
                <mxCell id="22" value="" style="endArrow=classic;html=1;" edge="1" parent="1">
                    <mxGeometry relative="1" as="geometry">
                        <mxPoint x="65" y="416.26" as="sourcePoint"/>
                        <mxPoint x="185" y="416.26" as="targetPoint"/>
                        <Array as="points">
                            <mxPoint x="125" y="416.26"/>
                        </Array>
                    </mxGeometry>
                </mxCell>
                <mxCell id="23" value="Label" style="edgeLabel;resizable=0;html=1;align=center;verticalAlign=middle;" connectable="0" vertex="1" parent="22">
                    <mxGeometry relative="1" as="geometry"/>
                </mxCell>
                <mxCell id="24" value="Source" style="edgeLabel;resizable=0;html=1;align=left;verticalAlign=bottom;" connectable="0" vertex="1" parent="22">
                    <mxGeometry x="-1" relative="1" as="geometry"/>
                </mxCell>
                <mxCell id="25" value="Target" style="edgeLabel;resizable=0;html=1;align=right;verticalAlign=bottom;" connectable="0" vertex="1" parent="22">
                    <mxGeometry x="1" relative="1" as="geometry"/>
                </mxCell>
                <mxCell id="26" value="" style="endArrow=classic;html=1;" edge="1" parent="1">
                    <mxGeometry relative="1" as="geometry">
                        <mxPoint x="60" y="430" as="sourcePoint"/>
                        <mxPoint x="180" y="430" as="targetPoint"/>
                        <Array as="points">
                            <mxPoint x="120" y="430"/>
                        </Array>
                    </mxGeometry>
                </mxCell>
                <mxCell id="27" value="Label" style="edgeLabel;resizable=0;html=1;align=center;verticalAlign=middle;" connectable="0" vertex="1" parent="26">
                    <mxGeometry relative="1" as="geometry"/>
                </mxCell>
                <mxCell id="28" value="Source" style="edgeLabel;resizable=0;html=1;align=left;verticalAlign=bottom;" connectable="0" vertex="1" parent="26">
                    <mxGeometry x="-1" relative="1" as="geometry"/>
                </mxCell>
                <mxCell id="29" value="Target" style="edgeLabel;resizable=0;html=1;align=right;verticalAlign=bottom;" connectable="0" vertex="1" parent="26">
                    <mxGeometry x="1" relative="1" as="geometry"/>
                </mxCell>
                <mxCell id="31" value="Her legger indikatorane du har selekta og kan selekta litt vidre og settings" style="whiteSpace=wrap;html=1;aspect=fixed;" vertex="1" parent="1">
                    <mxGeometry x="-55" y="510" width="80" height="80" as="geometry"/>
                </mxCell>
                <mxCell id="32" value="Start knap og lager knap så kan gå tilbake også så kan selekta kas test vil sjå" style="whiteSpace=wrap;html=1;aspect=fixed;" vertex="1" parent="1">
                    <mxGeometry x="551" y="261" width="80" height="80" as="geometry"/>
                </mxCell>
                <mxCell id="33" value="Visa chart med best resultat" style="whiteSpace=wrap;html=1;aspect=fixed;" vertex="1" parent="1">
                    <mxGeometry x="600" y="531.5" width="80" height="80" as="geometry"/>
                </mxCell>
            </root>
        </mxGraphModel>
    </diagram>
</mxfile>